<?xml version="1.0" encoding="UTF-8" standalone="no"?>
<svg width="100px" height="100px" viewBox="0 0 100 100" version="1.1" xmlns="http://www.w3.org/2000/svg" xmlns:xlink="http://www.w3.org/1999/xlink">
    <!-- Generator: Sketch 3.8.2 (29753) - http://www.bohemiancoding.com/sketch -->
    <title>atom</title>
    <desc>Created with Sketch.</desc>
    <defs></defs>
    <g id="Pages" stroke="none" stroke-width="1" fill="none" fill-rule="evenodd">
        <g id="Careers" transform="translate(-698.000000, -831.000000)">
            <g id="Group-5" transform="translate(0.000000, 472.000000)">
                <g id="#1" transform="translate(698.000000, 356.000000)">
                    <g id="atom" transform="translate(0.000000, 3.000000)">
                        <g id="Group">
                            <path d="M50.001,0 C77.614,0 100.001,22.386 100.001,50 C100.001,77.614 77.614,100 50.001,100 C22.386,100 0.001,77.613 0.001,50 C-2.36468831e-14,22.386 22.386,0 50.001,0 L50.001,0 Z" id="Shape" fill="#C0CA33"></path>
                            <path d="M75.69,40.626 C73.653,39.964 71.415,39.393 69.028,38.912 C69.805,36.596 70.446,34.354 70.895,32.252 C72.528,24.594 71.7,19.561 68.5,17.7 C67.699,17.232 66.777,16.997 65.762,16.997 C64.258,16.997 62.551,17.531 60.705,18.529 C58.773,19.725 56.291,21.55 54.627,23.036 C53.113,24.426 51.563,26.029 50,27.822 C44.127,21.082 38.397,16.998 34.238,16.998 C33.222,16.998 32.3,17.233 31.499,17.701 C28.302,19.562 27.474,24.596 29.105,32.253 C29.553,34.356 30.194,36.597 30.972,38.912 C28.584,39.392 26.347,39.964 24.311,40.626 C16.911,43.033 13,46.27 13,49.994 C13,52.549 14.844,54.876 18.393,56.863 C20.517,57.945 22.54,58.802 25.611,59.761 C27.287,60.257 29.084,60.693 30.973,61.073 C30.195,63.389 29.554,65.63 29.106,67.731 C27.475,75.393 28.303,80.424 31.502,82.286 C32.304,82.751 33.224,82.987 34.239,82.987 C38.399,82.987 44.129,78.905 50.001,72.163 C55.874,78.905 61.603,82.989 65.763,82.989 C66.779,82.989 67.699,82.753 68.499,82.288 C70.937,80.87 71.993,77.61 71.64,72.755 C71.589,71.892 70.695,66.72 70.285,65.206 C69.931,63.868 69.504,62.485 69.029,61.075 C71.418,60.595 73.654,60.022 75.691,59.36 C83.091,56.954 87.002,53.716 87.002,49.993 C87.001,46.27 83.091,43.033 75.69,40.626 L75.69,40.626 Z M56.091,24.931 C57.984,23.292 59.22,22.359 62.056,20.515 C63.486,19.766 64.742,19.379 65.763,19.379 C66.368,19.379 66.876,19.503 67.322,19.762 C69.451,21.002 69.924,25.486 68.588,31.756 C68.137,33.871 67.483,36.135 66.684,38.48 C63.704,37.977 60.528,37.61 57.223,37.394 C55.364,34.582 53.457,31.987 51.551,29.659 C53.114,27.848 54.638,26.271 56.091,24.931 L56.091,24.931 Z M58.983,55.222 C57.963,57.001 56.932,58.689 55.901,60.29 C53.999,60.394 52.032,60.45 49.999,60.45 C47.968,60.45 46.001,60.393 44.1,60.29 C43.068,58.688 42.037,57.003 41.017,55.222 C40.015,53.475 39.088,51.725 38.21,49.983 C39.07,48.276 40.004,46.535 41.017,44.766 C42.037,42.986 43.068,41.299 44.1,39.698 C46.001,39.594 47.968,39.538 49.999,39.538 C52.032,39.538 53.999,39.595 55.901,39.698 C56.932,41.3 57.963,42.985 58.983,44.766 C59.997,46.535 60.93,48.276 61.79,49.983 C60.913,51.725 59.985,53.475 58.983,55.222 L58.983,55.222 Z M63.085,52.645 C64.153,54.925 65.079,57.126 65.868,59.228 C63.671,59.589 61.319,59.88 58.829,60.089 C59.573,58.896 60.309,57.671 61.03,56.411 C61.749,55.155 62.427,53.9 63.085,52.645 L63.085,52.645 Z M54.269,62.745 C52.835,64.831 51.406,66.749 50.001,68.481 C48.595,66.749 47.166,64.833 45.733,62.745 C47.14,62.798 48.564,62.829 49.999,62.829 C51.438,62.829 52.86,62.798 54.269,62.745 L54.269,62.745 Z M41.173,60.089 C38.683,59.88 36.33,59.589 34.133,59.226 C34.921,57.126 35.848,54.925 36.916,52.645 C37.574,53.901 38.253,55.156 38.973,56.412 C39.693,57.669 40.429,58.894 41.173,60.089 L41.173,60.089 Z M36.922,47.331 C35.876,45.1 34.941,42.9 34.135,40.761 C36.331,40.4 38.683,40.107 41.172,39.9 C40.428,41.094 39.692,42.319 38.971,43.578 C38.256,44.827 37.579,46.079 36.922,47.331 L36.922,47.331 Z M45.733,37.243 C47.166,35.155 48.595,33.239 50.001,31.505 C51.405,33.239 52.835,35.155 54.269,37.243 C52.861,37.189 51.437,37.159 49.999,37.159 C48.563,37.159 47.14,37.189 45.733,37.243 L45.733,37.243 Z M61.03,43.576 C60.309,42.317 59.573,41.094 58.829,39.898 C61.317,40.106 63.669,40.398 65.866,40.759 C65.059,42.899 64.124,45.098 63.079,47.329 C62.423,46.079 61.747,44.827 61.03,43.576 L61.03,43.576 Z M31.416,31.755 C30.079,25.484 30.553,21.001 32.682,19.761 C33.126,19.502 33.637,19.378 34.24,19.378 C37.357,19.378 42.623,22.916 48.453,29.656 C46.549,31.985 44.643,34.579 42.784,37.391 C39.478,37.608 36.301,37.975 33.322,38.478 C32.522,36.134 31.867,33.871 31.416,31.755 L31.416,31.755 Z M26.1,57.411 C23.309,56.411 22.07,55.931 19.652,54.811 C16.891,53.287 15.362,51.609 15.362,49.993 C15.362,46.716 21.614,43.192 31.768,41.187 C32.825,44.041 34.095,46.997 35.563,49.993 C34.095,52.988 32.825,55.944 31.768,58.799 C29.713,58.394 27.815,57.927 26.1,57.411 L26.1,57.411 Z M34.239,80.608 C33.636,80.608 33.126,80.483 32.681,80.225 C29.866,78.586 29.963,71.37 33.318,61.506 C36.298,62.01 39.476,62.377 42.783,62.594 C44.643,65.406 46.549,68 48.452,70.328 C42.621,77.071 37.355,80.608 34.239,80.608 L34.239,80.608 Z M67.979,65.769 C68.2,66.874 68.969,70.306 69.268,73.037 C69.52,76.773 68.854,79.332 67.319,80.226 C66.874,80.484 66.366,80.609 65.762,80.609 C62.647,80.609 57.381,77.072 51.549,70.33 C53.453,68.002 55.36,65.406 57.219,62.596 C60.526,62.379 63.703,62.012 66.684,61.508 C67.188,62.989 67.622,64.415 67.979,65.769 L67.979,65.769 Z M68.233,58.8 C67.174,55.946 65.905,52.988 64.438,49.994 C65.905,46.998 67.174,44.042 68.233,41.188 C78.387,43.193 84.639,46.716 84.639,49.994 C84.64,53.271 78.388,56.794 68.233,58.8 L68.233,58.8 Z" id="Shape" fill="#FDFEFE"></path>
                            <path d="M42.5,19 C40.567,19 39,20.567 39,22.5 C39,24.434 40.567,26 42.5,26 C44.433,26 46,24.434 46,22.5 C46,20.568 44.433,19 42.5,19 L42.5,19 Z M30.5,67.001 C28.567,67.001 27,68.567 27,70.501 C27,72.433 28.567,74.001 30.5,74.001 C32.433,74.001 34,72.433 34,70.501 C34,68.567 32.433,67.001 30.5,67.001 L30.5,67.001 Z M77.501,53 C75.567,53 74.001,54.567 74.001,56.501 C74.001,58.435 75.567,60.001 77.501,60.001 C79.433,60.001 81.001,58.435 81.001,56.501 C81.001,54.567 79.433,53 77.501,53 L77.501,53 Z" id="Shape" fill="#E2574C"></path>
                            <path d="M43.5,20 C42.672,20 42,20.672 42,21.5 C42,22.328 42.672,23 43.5,23 C44.328,23 45,22.328 45,21.5 C45,20.672 44.329,20 43.5,20 L43.5,20 Z M31.5,68.001 C30.672,68.001 30,68.673 30,69.501 C30,70.329 30.672,71.001 31.5,71.001 C32.328,71.001 33,70.329 33,69.501 C33,68.673 32.329,68.001 31.5,68.001 L31.5,68.001 Z M78.501,54 C77.673,54 77.001,54.673 77.001,55.501 C77.001,56.329 77.673,57.001 78.501,57.001 C79.329,57.001 80.001,56.329 80.001,55.501 C80.001,54.673 79.329,54 78.501,54 L78.501,54 Z" id="Shape" fill="#EB9891"></path>
                            <path d="M50.001,43 C53.866,43 57.001,46.134 57.001,50 C57.001,53.867 53.866,57 50.001,57 C46.134,57 43.001,53.866 43.001,50 C43,46.134 46.134,43 50.001,43 L50.001,43 Z" id="Shape" fill="#324D5B"></path>
                            <path d="M52.001,46 C53.105,46 54.001,46.896 54.001,48 C54.001,49.104 53.105,50 52.001,50 C50.896,50 50.001,49.104 50.001,48 C50.001,46.896 50.896,46 52.001,46 L52.001,46 Z" id="Shape" fill="#6E818B"></path>
                            <path d="M51.001,56.001 C47.134,56.001 44.001,52.867 44.001,49.001 C44.001,47.323 44.593,45.783 45.578,44.578 C44.005,45.861 43,47.812 43,50 C43,53.867 46.134,57 50,57 C52.188,57 54.14,55.995 55.423,54.423 C54.219,55.409 52.679,56.001 51.001,56.001 L51.001,56.001 Z" id="Shape" fill="#2D4552"></path>
                            <path d="M42.5,19 C44.433,19 46,20.567 46,22.5 C46,24.434 44.433,26 42.5,26 C40.567,26 39,24.434 39,22.5 C39,20.568 40.568,19 42.5,19 L42.5,19 Z M77.501,53 C79.433,53 81.001,54.567 81.001,56.501 C81.001,58.435 79.433,60.001 77.501,60.001 C75.567,60.001 74.001,58.435 74.001,56.501 C74.001,54.567 75.567,53 77.501,53 L77.501,53 Z M30.5,67.001 C32.433,67.001 34,68.567 34,70.501 C34,72.433 32.433,74.001 30.5,74.001 C28.567,74.001 27,72.433 27,70.501 C27,68.567 28.568,67.001 30.5,67.001 L30.5,67.001 Z M42.5,17 C39.467,17 37,19.467 37,22.5 C37,25.533 39.467,28 42.5,28 C45.533,28 48,25.533 48,22.5 C48,19.467 45.533,17 42.5,17 L42.5,17 Z M77.501,51 C74.469,51 72.001,53.468 72.001,56.501 C72.001,59.533 74.469,62.001 77.501,62.001 C80.533,62.001 83.001,59.533 83.001,56.501 C83.001,53.468 80.533,51 77.501,51 L77.501,51 Z M30.5,65.001 C27.467,65.001 25,67.469 25,70.501 C25,73.533 27.467,76.001 30.5,76.001 C33.533,76.001 36,73.533 36,70.501 C36,67.469 33.533,65.001 30.5,65.001 L30.5,65.001 Z" id="Shape" fill="#FDFEFE"></path>
                            <g transform="translate(27.000000, 19.000000)" id="Shape" fill="#CB4E44">
                                <path d="M16.5,6 C14.567,6 13,4.434 13,2.5 C13,1.79 13.215,1.13 13.579,0.579 C12.629,1.205 12,2.278 12,3.5 C12,5.434 13.567,7 15.5,7 C16.722,7 17.795,6.372 18.421,5.421 C17.87,5.786 17.211,6 16.5,6 L16.5,6 Z M4.5,54.001 C2.567,54.001 1,52.433 1,50.501 C1,49.79 1.215,49.131 1.579,48.579 C0.629,49.205 0,50.278 0,51.501 C0,53.433 1.567,55.001 3.5,55.001 C4.722,55.001 5.795,54.372 6.421,53.422 C5.87,53.786 5.211,54.001 4.5,54.001 L4.5,54.001 Z M51.501,40.001 C49.567,40.001 48.001,38.435 48.001,36.501 C48.001,35.79 48.216,35.131 48.58,34.578 C47.63,35.204 47.001,36.278 47.001,37.501 C47.001,39.435 48.567,41.001 50.501,41.001 C51.723,41.001 52.796,40.372 53.422,39.422 C52.87,39.786 52.211,40.001 51.501,40.001 L51.501,40.001 Z"></path>
                            </g>
                        </g>
                    </g>
                </g>
            </g>
        </g>
    </g>
</svg>