<?xml version="1.0" encoding="UTF-8" standalone="no"?>
<svg width="100px" height="100px" viewBox="0 0 100 100" version="1.1" xmlns="http://www.w3.org/2000/svg" xmlns:xlink="http://www.w3.org/1999/xlink">
    <!-- Generator: Sketch 3.8.2 (29753) - http://www.bohemiancoding.com/sketch -->
    <title>blueprints</title>
    <desc>Created with Sketch.</desc>
    <defs></defs>
    <g id="Pages" stroke="none" stroke-width="1" fill="none" fill-rule="evenodd">
        <g id="Careers" transform="translate(-551.000000, -1345.000000)">
            <g transform="translate(-234.000000, 1202.000000)" id="#3">
                <g transform="translate(705.000000, 143.000000)">
                    <g id="blueprints" transform="translate(80.000000, 0.000000)">
                        <g id="Group">
                            <circle id="Oval" fill="#2EA9D3" cx="50" cy="50" r="50"></circle>
                            <path d="M91.283,21.999 C90.824,21.32 90.345,20.654 89.855,19.999 L81.855,19.999 L81.855,11.587 C81.201,11.042 80.535,10.511 79.855,10 L79.855,19.999 L61.855,19.999 L61.855,1.46 C61.193,1.297 60.527,1.139 59.855,1.002 L59.855,19.998 L41.855,19.998 L41.855,0.646 C41.185,0.754 40.515,0.869 39.855,1.003 L39.855,19.999 L21.855,19.999 L21.855,8.571 C21.176,9.031 20.51,9.508 19.855,10 L19.855,19.999 L9.855,19.999 C9.363,20.654 8.886,21.32 8.426,21.999 L19.854,21.999 L19.854,39.999 L0.857,39.999 C0.723,40.66 0.607,41.329 0.5,41.999 L19.855,41.999 L19.855,59.999 L0.857,59.999 C0.994,60.673 1.151,61.337 1.315,61.999 L19.856,61.999 L19.856,79.999 L9.853,79.999 C10.365,80.682 10.895,81.348 11.44,81.999 L19.855,81.999 L19.855,90 C20.51,90.492 21.176,90.969 21.855,91.43 L21.855,81.998 L39.855,81.998 L39.855,98.998 C40.515,99.131 41.185,99.246 41.855,99.355 L41.855,81.998 L59.855,81.998 L59.855,98.998 C60.527,98.861 61.193,98.703 61.855,98.539 L61.855,81.998 L79.855,81.998 L79.855,90 C80.535,89.488 81.201,88.957 81.855,88.412 L81.855,81.998 L88.269,81.998 C88.814,81.346 89.345,80.68 89.857,79.998 L81.855,79.998 L81.855,61.998 L98.396,61.998 C98.558,61.336 98.715,60.672 98.853,59.998 L81.855,59.998 L81.855,41.998 L99.209,41.998 C99.102,41.328 98.986,40.659 98.854,39.998 L81.855,39.998 L81.855,21.998 L91.283,21.999 L91.283,21.999 Z M39.855,79.998 L21.855,79.998 L21.855,61.998 L39.855,61.998 L39.855,79.998 L39.855,79.998 Z M39.855,59.998 L21.855,59.998 L21.855,41.998 L39.855,41.998 L39.855,59.998 L39.855,59.998 Z M39.855,39.999 L21.855,39.999 L21.855,21.999 L39.855,21.999 L39.855,39.999 L39.855,39.999 Z M59.855,79.998 L41.855,79.998 L41.855,61.998 L59.855,61.998 L59.855,79.998 L59.855,79.998 Z M59.855,59.998 L41.855,59.998 L41.855,41.998 L59.855,41.998 L59.855,59.998 L59.855,59.998 Z M59.855,39.999 L41.855,39.999 L41.855,21.999 L59.855,21.999 L59.855,39.999 L59.855,39.999 Z M79.855,79.998 L61.855,79.998 L61.855,61.998 L79.855,61.998 L79.855,79.998 L79.855,79.998 Z M79.855,59.998 L61.855,59.998 L61.855,41.998 L79.855,41.998 L79.855,59.998 L79.855,59.998 Z M79.855,39.999 L61.855,39.999 L61.855,21.999 L79.855,21.999 L79.855,39.999 L79.855,39.999 Z" id="Shape" fill="#43B2D7"></path>
                            <path d="M76.456,38.26 L71.292,43.424 C70.525,44.191 69.282,44.191 68.516,43.424 L59.576,34.484 C58.809,33.717 58.809,32.474 59.576,31.708 L64.741,26.543 C65.508,25.776 66.751,25.776 67.516,26.543 L76.456,35.483 C77.223,36.25 77.223,37.493 76.456,38.26 L76.456,38.26 Z" id="Shape" fill="#EFEFEF"></path>
                            <path d="M70.516,41.424 L61.576,32.484 C60.809,31.717 60.809,30.474 61.576,29.708 L59.576,31.708 C58.809,32.475 58.809,33.718 59.576,34.484 L68.516,43.424 C69.284,44.191 70.526,44.191 71.292,43.424 L73.292,41.424 C72.525,42.191 71.282,42.191 70.516,41.424 L70.516,41.424 Z" id="Shape" fill="#D7D7D7"></path>
                            <path d="M91.438,77.986 L41.734,28.282 C41.338,27.887 40.698,27.887 40.302,28.282 L30.282,38.303 C29.887,38.698 29.887,39.338 30.282,39.734 L80.307,89.76 C84.623,86.465 88.391,82.49 91.438,77.986 L91.438,77.986 Z" id="Shape" fill="#EFC75E"></path>
                            <path d="M45.497,32.006 L40.291,37.211 C39.881,37.621 39.881,38.287 40.291,38.698 C40.702,39.108 41.368,39.108 41.778,38.698 L46.984,33.492 L45.497,32.006 L45.497,32.006 Z M48.44,34.99 L45.319,38.111 C44.888,38.542 44.888,39.24 45.319,39.671 C45.75,40.103 46.449,40.103 46.88,39.671 L50.001,36.551 L48.44,34.99 L48.44,34.99 Z M49.88,42.67 L53.001,39.55 L51.439,37.99 L48.318,41.11 C47.887,41.542 47.887,42.24 48.318,42.671 C48.75,43.102 49.449,43.102 49.88,42.67 L49.88,42.67 Z M54.497,41.006 L49.291,46.211 C48.881,46.621 48.881,47.287 49.291,47.698 C49.702,48.109 50.368,48.109 50.777,47.698 L55.984,42.493 L54.497,41.006 L54.497,41.006 Z M57.439,43.99 L54.318,47.11 C53.888,47.542 53.888,48.24 54.318,48.671 C54.75,49.103 55.449,49.103 55.88,48.671 L59.001,45.55 L57.439,43.99 L57.439,43.99 Z M58.88,51.672 L62.001,48.549 L60.439,46.989 L57.318,50.109 C56.888,50.54 56.888,51.238 57.318,51.671 C57.75,52.102 58.449,52.102 58.88,51.672 L58.88,51.672 Z M63.497,50.005 L58.291,55.211 C57.881,55.621 57.881,56.287 58.291,56.699 C58.702,57.109 59.368,57.109 59.777,56.699 L64.984,51.492 L63.497,50.005 L63.497,50.005 Z M66.439,52.988 L63.318,56.111 C62.888,56.541 62.888,57.24 63.318,57.672 C63.75,58.102 64.449,58.102 64.88,57.672 L68.001,54.549 L66.439,52.988 L66.439,52.988 Z M67.88,60.672 L71.001,57.549 L69.439,55.99 L66.318,59.111 C65.888,59.541 65.888,60.24 66.318,60.672 C66.75,61.102 67.449,61.102 67.88,60.672 L67.88,60.672 Z M72.497,59.006 L67.291,64.211 C66.881,64.621 66.881,65.287 67.291,65.699 C67.702,66.109 68.368,66.109 68.777,65.699 L73.984,60.492 L72.497,59.006 L72.497,59.006 Z M75.439,61.99 L72.318,65.111 C71.888,65.541 71.888,66.24 72.318,66.67 C72.75,67.102 73.449,67.102 73.88,66.67 L77.001,63.551 L75.439,61.99 L75.439,61.99 Z M76.88,69.67 L80.001,66.551 L78.439,64.99 L75.318,68.109 C74.888,68.541 74.888,69.24 75.318,69.67 C75.75,70.102 76.449,70.102 76.88,69.67 L76.88,69.67 Z M81.497,68.006 L76.291,73.211 C75.881,73.623 75.881,74.287 76.291,74.699 C76.702,75.109 77.368,75.109 77.777,74.699 L82.984,69.494 L81.497,68.006 L81.497,68.006 Z M84.439,70.99 L81.318,74.109 C80.888,74.541 80.888,75.24 81.318,75.67 C81.75,76.102 82.449,76.102 82.88,75.67 L86.001,72.549 L84.439,70.99 L84.439,70.99 Z M87.439,73.99 L84.318,77.111 C83.888,77.541 83.888,78.24 84.318,78.672 C84.75,79.102 85.449,79.102 85.88,78.672 L89.001,75.549 L87.439,73.99 L87.439,73.99 Z M45.497,32.006 L40.291,37.211 C39.881,37.621 39.881,38.287 40.291,38.698 C40.702,39.108 41.368,39.108 41.778,38.698 L46.984,33.492 L45.497,32.006 L45.497,32.006 Z M48.44,34.99 L45.319,38.111 C44.888,38.542 44.888,39.24 45.319,39.671 C45.75,40.103 46.449,40.103 46.88,39.671 L50.001,36.551 L48.44,34.99 L48.44,34.99 Z M49.88,42.67 L53.001,39.55 L51.439,37.99 L48.318,41.11 C47.887,41.542 47.887,42.24 48.318,42.671 C48.75,43.102 49.449,43.102 49.88,42.67 L49.88,42.67 Z M54.497,41.006 L49.291,46.211 C48.881,46.621 48.881,47.287 49.291,47.698 C49.702,48.109 50.368,48.109 50.777,47.698 L55.984,42.493 L54.497,41.006 L54.497,41.006 Z M57.439,43.99 L54.318,47.11 C53.888,47.542 53.888,48.24 54.318,48.671 C54.75,49.103 55.449,49.103 55.88,48.671 L59.001,45.55 L57.439,43.99 L57.439,43.99 Z M58.88,51.672 L62.001,48.549 L60.439,46.989 L57.318,50.109 C56.888,50.54 56.888,51.238 57.318,51.671 C57.75,52.102 58.449,52.102 58.88,51.672 L58.88,51.672 Z M63.497,50.005 L58.291,55.211 C57.881,55.621 57.881,56.287 58.291,56.699 C58.702,57.109 59.368,57.109 59.777,56.699 L64.984,51.492 L63.497,50.005 L63.497,50.005 Z M66.439,52.988 L63.318,56.111 C62.888,56.541 62.888,57.24 63.318,57.672 C63.75,58.102 64.449,58.102 64.88,57.672 L68.001,54.549 L66.439,52.988 L66.439,52.988 Z M67.88,60.672 L71.001,57.549 L69.439,55.99 L66.318,59.111 C65.888,59.541 65.888,60.24 66.318,60.672 C66.75,61.102 67.449,61.102 67.88,60.672 L67.88,60.672 Z M72.497,59.006 L67.291,64.211 C66.881,64.621 66.881,65.287 67.291,65.699 C67.702,66.109 68.368,66.109 68.777,65.699 L73.984,60.492 L72.497,59.006 L72.497,59.006 Z M75.439,61.99 L72.318,65.111 C71.888,65.541 71.888,66.24 72.318,66.67 C72.75,67.102 73.449,67.102 73.88,66.67 L77.001,63.551 L75.439,61.99 L75.439,61.99 Z M76.88,69.67 L80.001,66.551 L78.439,64.99 L75.318,68.109 C74.888,68.541 74.888,69.24 75.318,69.67 C75.75,70.102 76.449,70.102 76.88,69.67 L76.88,69.67 Z M81.497,68.006 L76.291,73.211 C75.881,73.623 75.881,74.287 76.291,74.699 C76.702,75.109 77.368,75.109 77.777,74.699 L82.984,69.494 L81.497,68.006 L81.497,68.006 Z M84.439,70.99 L81.318,74.109 C80.888,74.541 80.888,75.24 81.318,75.67 C81.75,76.102 82.449,76.102 82.88,75.67 L86.001,72.549 L84.439,70.99 L84.439,70.99 Z M87.439,73.99 L84.318,77.111 C83.888,77.541 83.888,78.24 84.318,78.672 C84.75,79.102 85.449,79.102 85.88,78.672 L89.001,75.549 L87.439,73.99 L87.439,73.99 Z" id="Shape" fill="#D9B556"></path>
                            <path d="M30.00293,50.2957153 C29.8001275,50.0930908 21.489,46.598 21.047,47.04 C20.58,47.506 23.906,55.686 23.906,55.686 L51.047,82.71 C51.827,83.49 53.818,82.74 55.382,81.18 C56.764,79.799 57.413,78.158 57.008,77.256 C57.008,77.256 38.9151275,59.2000908 30.00293,50.2957153 Z" id="Shape" fill="#324D5B"></path>
                            <polygon id="Shape" fill="#E2574C" points="60.988 37.06 70.06 27.989 75.009 32.938 65.939 42.009 60.988 37.06"></polygon>
                            <path d="M21.047,47.042 C20.58,47.508 23.906,55.687 23.906,55.687 L51.047,82.712 C51.57,83.235 52.639,83.06 53.757,82.423 L26.906,55.686 C24.9612446,51.6610372 21.2056402,46.8833598 21.047,47.042 Z" id="Shape" fill="#2D4552"></path>
                            <path d="M81.913,88.48 L31.01,37.576 L30.283,38.302 C29.906,38.679 29.9,39.277 30.244,39.675 L80.32,89.75 C80.859,89.338 81.391,88.914 81.913,88.48 L81.913,88.48 Z" id="Shape" fill="#F2D079"></path>
                            <path d="M55.382,81.18 C53.82,82.742 51.827,83.492 51.047,82.711 L23.906,55.686 C23.906,55.686 21.8518272,48.252396 21.4411011,48.6550903 C19.7223511,48.252396 23.905,57.686 23.905,57.686 L51.046,84.711 C51.826,85.492 53.818,84.742 55.381,83.18 C56.762,81.799 57.412,80.159 57.007,79.256 L56.841,79.088 C56.553,79.77 56.057,80.506 55.382,81.18 Z" id="Shape" fill="#2A9AC1"></path>
                            <g transform="translate(21.000000, 49.000000)" id="Shape" fill="#3DA3C5">
                                <path d="M36.118,30.998 L35.342,30.998 C35.08,31.398 34.764,31.799 34.382,32.18 C34.07,32.491 33.742,32.758 33.41,32.998 L35.346,32.998 C35.812,32.287 36.084,31.584 36.118,30.998 L36.118,30.998 Z M7.237,12.998 L9.246,12.998 L7.237,10.998 L5.229,10.998 L7.237,12.998 Z M1,1.701 C0.79,1.111 0.594,0.536 0.433,0.025 C0.239,-0.002 0.093,-0.005 0.047,0.041 C-0.156,0.243 0.356,1.896 1,3.706 L1,1.701 L1,1.701 Z M27.322,30.998 L25.314,30.998 L27.322,32.998 L29.331,32.998 L27.322,30.998 Z M21,24.703 L19,22.711 L19,24.711 L21,26.703 L21,24.703 Z"></path>
                            </g>
                            <path d="M80.309,89.758 L30.569,40.018 L30.284,40.303 C29.889,40.698 29.889,41.338 30.284,41.734 L79.157,90.608 C79.544,90.328 79.93,90.047 80.309,89.758 L80.309,89.758 Z" id="Shape" fill="#2A9AC1"></path>
                            <g transform="translate(29.000000, 40.000000)" id="Shape" fill="#3DA3C5">
                                <path d="M13,11.449 L11,9.45 L11,11.449 L13,13.449 L13,11.449 Z M1.568,0.018 L1.283,0.303 C0.888,0.698 0.888,1.338 1.283,1.734 L1.549,2 L3.549,2 L1.568,0.018 L1.568,0.018 Z M21.549,21.998 L23.549,21.998 L21.549,19.998 L19.549,19.998 L21.549,21.998 Z M41.549,39.998 L39.549,39.998 L41.549,41.998 L43.549,41.998 L41.549,39.998 Z M33,31.449 L31,29.449 L31,31.449 L33,33.449 L33,31.449 Z"></path>
                            </g>
                            <polygon id="Shape" fill="#CB4E44" points="62.986 35.062 67.936 40.011 65.937 42.011 60.987 37.062"></polygon>
                            <path d="M68.516,43.424 L59.576,34.484 C58.809,33.717 58.809,32.474 59.576,31.708 L58.576,32.708 C57.809,33.475 57.809,34.718 58.576,35.484 L67.516,44.424 C68.284,45.191 69.526,45.191 70.292,44.424 L71.292,43.424 C70.525,44.191 69.282,44.191 68.516,43.424 L68.516,43.424 Z" id="Shape" fill="#2A9AC1"></path>
                            <g transform="translate(59.000000, 34.000000)" id="Shape" fill="#3DA3C5">
                                <path d="M2.855,2.765 L0.855,0.765 L0.855,2.765 L2.855,4.765 L2.855,2.765 Z M6.09,7.999 L8.09,7.999 L6.09,5.999 L4.09,5.999 L6.09,7.999 Z"></path>
                            </g>
                            <path d="M21.047,47.04 C20.58,47.506 23.906,55.686 23.906,55.686 L24.174,55.954 C25.604,55.804 26.992,55.184 28.088,54.089 C29.172,53.005 29.789,51.634 29.947,50.22 C29.947,50.22 21.489,46.598 21.047,47.04 Z" id="Shape" fill="#FFE296"></path>
                            <path d="M24.093,47.806 C22.537,47.262 21.218,46.869 21.047,47.04 C20.58,47.506 23.906,55.686 23.906,55.686 L24.174,55.954 C25.047,55.862 25.897,55.573 26.682,55.13 C26.09,53.645 24.479,49.534 24.093,47.806 L24.093,47.806 Z" id="Shape" fill="#E9CF89"></path>
                            <path d="M23.963,47.76 C22.463,47.239 21.212,46.875 21.046,47.04 C20.872,47.214 21.226,48.463 21.738,49.959 C22.329,50.031 22.945,49.85 23.398,49.397 C23.847,48.95 24.028,48.344 23.963,47.76 L23.963,47.76 Z" id="Shape" fill="#2D4552"></path>
                        </g>
                    </g>
                </g>
            </g>
        </g>
    </g>
</svg>