<?xml version="1.0" encoding="UTF-8" standalone="no"?>
<svg width="100px" height="100px" viewBox="0 0 100 100" version="1.1" xmlns="http://www.w3.org/2000/svg" xmlns:xlink="http://www.w3.org/1999/xlink">
    <!-- Generator: sketchtool 3.7.2 (28276) - http://www.bohemiancoding.com/sketch -->
    <title>5A1FC5CB-D6C4-463D-9F5A-AFA1ACE14781</title>
    <desc>Created with sketchtool.</desc>
    <defs></defs>
    <g id="Pages" stroke="none" stroke-width="1" fill="none" fill-rule="evenodd">
        <g id="Home-AltHeader" transform="translate(-648.000000, -2899.000000)">
            <g id="Group-4" transform="translate(0.000000, 2544.000000)">
                <g id="#1" transform="translate(648.000000, 355.000000)">
                    <g id="calendar">
                        <g id="Group">
                            <path d="M50,0 C22.386,0 0,22.386 0,50 C0,77.615 22.386,100 50,100 C77.614,100 100,77.615 100,50 C100,22.386 77.614,0 50,0 L50,0 Z" id="Shape" fill="#C0CA33"></path>
                            <path d="M23,22 L77,22 C78.657,22 80,23.343 80,25 L80,75 C80,76.657 78.657,78 77,78 L23,78 C21.343,78 20,76.657 20,75 L20,25 C20,23.343 21.343,22 23,22 L23,22 Z" id="Shape" fill="#0288D1"></path>
                            <path d="M27,27 L73,27 C74.104,27 75,27.896 75,28.999 L75,72.001 C75,73.104 74.104,74 73,74 L27,74 C25.896,74 25,73.104 25,72.001 L25,28.999 C25,27.896 25.896,27 27,27 L27,27 Z" id="Shape" fill="#FFFFFF"></path>
                            <path d="M25,72.001 C25,73.104 25.896,74 27,74 L73,74 C74.104,74 75,73.104 75,72.001 L75,51 L25,51 L25,72.001 L25,72.001 Z" id="Shape" fill="#F2F2F2"></path>
                            <path d="M46.894,56.526 L41.989,56.526 C44.267,53.72 48.422,50.103 48.422,46.459 C48.422,43.129 45.769,41.005 42.472,41.005 C39.175,41.005 36.172,43.652 36.172,46.956 C36.172,47.978 36.843,48.87 38.129,48.87 C40.702,48.87 39.228,44.623 42.311,44.623 C43.41,44.623 44.241,45.566 44.241,46.642 C44.241,47.586 43.786,48.399 43.303,49.08 C41.266,51.965 38.854,54.324 36.629,56.92 C36.361,57.235 36.013,57.707 36.013,58.257 C36.013,59.464 36.924,59.987 38.104,59.987 L47.056,59.987 C48.075,59.987 48.987,59.464 48.987,58.257 C48.984,57.051 48.072,56.526 46.894,56.526 L46.894,56.526 Z M60.885,49.67 C62.295,48.768 62.988,47.349 62.988,45.724 C62.988,43.712 61.218,41.005 57.526,41.005 C54.679,41.005 51.935,43.171 51.935,45.183 C51.935,46.137 52.55,47.091 53.602,47.091 C55.345,47.091 55.012,44.564 57.449,44.564 C58.602,44.564 59.296,45.312 59.296,46.292 C59.296,49.155 55.654,47.324 55.654,50.031 C55.654,53.075 60.013,50.418 60.013,54.028 C60.013,55.395 58.936,56.427 57.602,56.427 C54.705,56.427 55.115,53.409 53.372,53.409 C52.448,53.409 51.396,54.131 51.396,55.137 C51.396,57.174 53.755,59.986 57.551,59.986 C61.193,59.986 64.014,57.381 64.014,54.287 C64.014,52.249 62.73,50.521 60.885,49.67 L60.885,49.67 Z" id="Shape" fill="#40545E"></path>
                            <path d="M25,48 C24.447,48 24,48.447 24,49 L24,52 C24,52.552 24.447,53 25,53 C25.553,53 26,52.552 26,52 L26,49 C26,48.447 25.553,48 25,48 L25,48 Z M75,48 C74.447,48 74,48.447 74,49 L74,52 C74,52.552 74.447,53 75,53 C75.553,53 76,52.552 76,52 L76,49 C76,48.447 75.553,48 75,48 L75,48 Z" id="Shape" fill="#2B414D"></path>
                            <polygon id="Shape" fill="#E5E5E5" points="26 50 74 50 74 51 26 51"></polygon>
                            <path d="M73,73 L27,73 C25.896,73 25,72.104 25,71.001 L25,72.001 C25,73.104 25.896,74 27,74 L73,74 C74.104,74 75,73.104 75,72.001 L75,71.001 C75,72.104 74.104,73 73,73 L73,73 Z" id="Shape" fill="#B5B5B6"></path>
                            <g transform="translate(41.000000, 50.000000)" id="Shape" fill="#394B54">
                                <path d="M14.653,0.03 C14.653,0.457 14.746,0.764 14.893,1 L21.711,1 C21.361,0.615 20.951,0.279 20.495,0 L14.655,0 L14.653,0.03 L14.653,0.03 Z M1.597,0 C1.343,0.334 1.095,0.677 0.832,1 L5.65,1 C5.881,0.67 6.097,0.336 6.293,0 L1.597,0 L1.597,0 Z"></path>
                            </g>
                        </g>
                    </g>
                </g>
            </g>
        </g>
    </g>
</svg>