<svg width="101px" height="100px" viewBox="0 0 101 100" version="1.1" xmlns="http://www.w3.org/2000/svg" xmlns:xlink="http://www.w3.org/1999/xlink">
    <!-- Generator: sketchtool 3.7.2 (28276) - http://www.bohemiancoding.com/sketch -->
    <title>3E7C35B4-F05F-4E3D-A5D0-78131D3A3CCE</title>
    <desc>Created with sketchtool.</desc>
    <defs></defs>
    <g id="Pages" stroke="none" stroke-width="1" fill="none" fill-rule="evenodd">
        <g id="Home-AltHeader" transform="translate(-648.000000, -1415.000000)">
            <g id="Group-7" transform="translate(0.000000, 944.000000)">
                <g id="#1" transform="translate(648.000000, 471.000000)">
                    <g id="car">
                        <path d="M50,0 C77.614,0 100,22.386 100,50 C100,77.614 77.614,100 50,100 C22.386,100 0,77.614 0,50 C0,22.386 22.386,0 50,0 L50,0 Z" id="Shape" fill="#C0CA33"></path>
                        <path d="M92.151927,73 C98.954649,81.3900223 100.882087,98.0566889 99.7482999,99.7671133 C98.8412698,100.891156 90.5271219,89.8362217 78.055467,89.8362217 C78.055467,89.8362217 90.4512472,73.9070294 92.151927,73 Z" id="Path-31" fill="#C0CA33"></path>
                        <g id="Group-2" transform="translate(14.000000, 18.000000)">
                            <path d="M54,49.5 L54,52.2 C54,53.6913 55.2096,54.9 56.7,54.9 L61.2,54.9 L61.2,49.5 L54,49.5 L54,49.5 Z M11.7,54.9 L16.2,54.9 C17.6904,54.9 18.9,53.6913 18.9,52.2 L18.9,49.5 L11.7,49.5 L11.7,54.9 L11.7,54.9 Z" id="Shape" fill="#1E2E37"></path>
                            <path d="M60.3,49.5 L60.3,59.4 C60.3,61.3881 61.9119,63 63.9,63 L64.8,63 C66.7881,63 68.4,61.3881 68.4,59.4 L68.4,49.5 L60.3,49.5 L60.3,49.5 Z M4.5,59.4 C4.5,61.3881 6.1119,63 8.1,63 L9,63 C10.9881,63 12.6,61.3881 12.6,59.4 L12.6,49.5 L4.5,49.5 L4.5,59.4 L4.5,59.4 Z" id="Shape" fill="#324D5B"></path>
                            <path d="M35.775,3.19744231e-15 L35.9442,3.19744231e-15 C54.8388,3.19744231e-15 59.4,8.0829 59.4,23.4558 L12.5442,23.4558 C12.5442,8.0829 17.1738,0 35.775,0 L35.775,3.19744231e-15 Z" id="Shape" fill="#BF392B"></path>
                            <path d="M35.8263,2.7 L35.9757,2.7 C52.6689,2.7 56.7,9.8505 56.7,23.4504 L15.3,23.4504 C15.3,9.8505 19.3905,2.7 35.8263,2.7 L35.8263,2.7 Z" id="Shape" fill="#85C6DC"></path>
                            <path d="M12.6,25.2 L59.4,25.2 C66.3588,25.2 72,30.8421 72,37.8 L72,40.5 C72,42.4881 71.0856,44.1 68.4,44.1 L3.6,44.1 C0.9369,44.1 0,42.4881 0,40.5 L0,37.8 C0,30.8421 5.6412,25.2 12.6,25.2 L12.6,25.2 Z" id="Shape" fill="#BF392B"></path>
                            <path d="M36,44.1 C47.4327,44.1 56.7,46.1142 56.7,48.6 C56.7,51.0858 47.4327,53.1 36,53.1 C24.5673,53.1 15.3,51.0858 15.3,48.6 C15.3,46.1142 24.5673,44.1 36,44.1 L36,44.1 Z" id="Shape" fill="#85281E"></path>
                            <path d="M2.7,44.1 L70.2,44.1 C71.1936,44.1 72,44.9064 72,45.9 C72,47.8881 70.3881,49.5 68.4,49.5 L4.5,49.5 C2.5119,49.5 0.9,47.8881 0.9,45.9 C0.9,44.9064 1.7064,44.1 2.7,44.1 L2.7,44.1 Z" id="Shape" fill="#E4E7E7"></path>
                            <path d="M45.9,27.9 L45.9,44.1 L53.1,44.1 C53.1,28.7937 56.7,27.9 56.7,27.9 L45.9,27.9 L45.9,27.9 Z M27.9,44.1 L27.9,27.9 L17.1,27.9 C17.1,27.9 20.7,28.7937 20.7,44.1 L27.9,44.1 Z" id="Shape" fill="#AC3327"></path>
                            <path d="M61.1442,21.6702 C51.7932,16.1478 37.1844,17.1612 36.8856,17.1837 C36.5868,17.1621 21.9951,16.1487 12.654,21.6702 C12.654,21.6702 10.5228,23.0265 12.654,23.4648 C12.654,23.4648 19.1232,26.4087 22.5315,37.8189 C22.5315,37.8189 24.4386,44.1 28.8171,44.1 L44.9622,44.1 C49.3461,44.1 51.255,37.8189 51.255,37.8189 C54.6678,26.4078 61.1433,23.4648 61.1433,23.4648 C63.2781,23.0265 61.1442,21.6702 61.1442,21.6702 L61.1442,21.6702 Z" id="Shape" fill="#E2574C"></path>
                            <path d="M17.7471,24.0867 C17.7471,24.0867 22.1373,26.0424 24.4503,33.6267 C24.4503,33.6267 25.7445,41.4009 28.7154,41.4009 L33.3,41.4009 L33.3,19.8558 C33.2999998,19.8558 24.1515,19.1853 17.7471,22.8942 C17.7470996,22.8942006 16.3026,23.7951 17.7471,24.0867 Z M56.0529,22.8942 C49.6485,19.1853 40.5,19.8558 40.5,19.8558 L40.5,41.4 L45.0846,41.4 C48.0564,41.4 49.3497,33.6258 49.3497,33.6258 C51.6627,26.0415 56.0529,24.0858 56.0529,24.0858 C57.4983,23.7942 56.0529,22.8942 56.0529,22.8942 L56.0529,22.8942 Z" id="Shape" fill="#BF392B"></path>
                            <polygon id="Shape" fill="#E87970" points="36 17.1 37.8 17.1 37.8 44.1 36 44.1"></polygon>
                            <polygon id="Shape" fill="#E07168" points="36 41.4 37.8 41.4 37.8 44.1 36 44.1"></polygon>
                            <path d="M9.9,30.6 C6.9183,30.6 4.5,33.0183 4.5,36 C4.5,38.9817 6.9183,41.4 9.9,41.4 C12.8817,41.4 15.3,38.9817 15.3,36 C15.3,33.0183 12.8817,30.6 9.9,30.6 L9.9,30.6 Z M62.1,30.6 C59.1183,30.6 56.7,33.0183 56.7,36 C56.7,38.9817 59.1183,41.4 62.1,41.4 C65.0817,41.4 67.5,38.9817 67.5,36 C67.5,33.0183 65.0817,30.6 62.1,30.6 L62.1,30.6 Z" id="Shape" fill="#E3E6E6"></path>
                            <path d="M62.1,31.95 C64.3329,31.95 66.15,33.7671 66.15,36 C66.15,38.2329 64.3329,40.05 62.1,40.05 C59.8671,40.05 58.05,38.2329 58.05,36 C58.05,33.7671 59.8671,31.95 62.1,31.95 L62.1,31.95 Z M9.9,31.95 C12.1329,31.95 13.95,33.7671 13.95,36 C13.95,38.2329 12.1329,40.05 9.9,40.05 C7.6671,40.05 5.85,38.2329 5.85,36 C5.85,33.7671 7.6671,31.95 9.9,31.95 L9.9,31.95 Z M62.1,30.6 C59.1183,30.6 56.7,33.0183 56.7,36 C56.7,38.9817 59.1183,41.4 62.1,41.4 C65.0817,41.4 67.5,38.9817 67.5,36 C67.5,33.0183 65.0817,30.6 62.1,30.6 L62.1,30.6 Z M9.9,30.6 C6.9183,30.6 4.5,33.0183 4.5,36 C4.5,38.9817 6.9183,41.4 9.9,41.4 C12.8817,41.4 15.3,38.9817 15.3,36 C15.3,33.0183 12.8817,30.6 9.9,30.6 L9.9,30.6 Z" id="Shape" fill="#CCD0D2"></path>
                            <path d="M9.9,34.2 C8.9064,34.2 8.1,35.0064 8.1,36 C8.1,36.9936 8.9064,37.8 9.9,37.8 C10.8936,37.8 11.7,36.9936 11.7,36 C11.7,35.0064 10.8936,34.2 9.9,34.2 L9.9,34.2 Z M62.1,34.2 C61.1064,34.2 60.3,35.0064 60.3,36 C60.3,36.9936 61.1064,37.8 62.1,37.8 C63.0936,37.8 63.9,36.9936 63.9,36 C63.9,35.0064 63.0936,34.2 62.1,34.2 L62.1,34.2 Z" id="Shape" fill="#C4CBCE"></path>
                            <path d="M61.2,22.5 L60.3,22.5 C59.3064,22.5 58.5,23.3064 58.5,24.3 L58.5,25.2 C58.5,25.6977 59.5071,26.1 60.75,26.1 C61.9929,26.1 63,25.6977 63,25.2 L63,24.3 C63,23.3064 62.1936,22.5 61.2,22.5 L61.2,22.5 Z M12.6,22.5 L11.7,22.5 C10.7064,22.5 9.9,23.3064 9.9,24.3 L9.9,25.2 C9.9,25.6977 10.9071,26.1 12.15,26.1 C13.3929,26.1 14.4,25.6977 14.4,25.2 L14.4,24.3 C14.4,23.3064 13.5936,22.5 12.6,22.5 L12.6,22.5 Z" id="Shape" fill="#F4B459"></path>
                            <path d="M16.9731,12.0294 C19.8738,10.6434 27.882,7.2 35.9136,7.2 C44.0118,7.2 52.1235,10.6614 55.0359,12.0411 C52.6068,5.886 47.1105,2.7 35.9757,2.7 L35.8263,2.7 C24.8697,2.7 19.404,5.8815 16.9731,12.0294 L16.9731,12.0294 Z" id="Shape" fill="#92D2E8"></path>
                            <g id="Group" transform="translate(9.900000, 22.500000)" fill="#C67740">
                                <path d="M0.9,2.7 L0.9,1.8 C0.9,0.8064 1.7064,0 2.7,0 L1.8,0 C0.8064,0 0,0.8064 0,1.8 L0,2.7 C0,3.1977 1.0071,3.6 2.25,3.6 L2.7,3.5811 C1.6731,3.4992 0.9,3.1356 0.9,2.7 L0.9,2.7 Z M49.5,2.7 L49.5,1.8 C49.5,0.8064 50.3064,0 51.3,0 L50.4,0 C49.4064,0 48.6,0.8064 48.6,1.8 L48.6,2.7 C48.6,3.1977 49.6071,3.6 50.85,3.6 L51.3,3.5811 C50.2722,3.4992 49.5,3.1356 49.5,2.7 L49.5,2.7 Z" id="Shape"></path>
                            </g>
                        </g>
                    </g>
                </g>
            </g>
        </g>
    </g>
</svg>