<?xml version="1.0" encoding="UTF-8" standalone="no"?>
<svg width="100px" height="100px" viewBox="0 0 100 100" version="1.1" xmlns="http://www.w3.org/2000/svg" xmlns:xlink="http://www.w3.org/1999/xlink">
    <!-- Generator: Sketch 3.8.2 (29753) - http://www.bohemiancoding.com/sketch -->
    <title>cup</title>
    <desc>Created with Sketch.</desc>
    <defs></defs>
    <g id="Pages" stroke="none" stroke-width="1" fill="none" fill-rule="evenodd">
        <g id="Careers" transform="translate(-699.000000, -680.000000)">
            <g id="Group-5" transform="translate(0.000000, 472.000000)">
                <g id="#2" transform="translate(699.000000, 208.000000)">
                    <g id="cup">
                        <g id="Group">
                            <path d="M50,0 C22.386,0 0,22.386 0,50 C0,77.613 22.386,100 50,100 C77.614,100 100,77.613 100,50 C100,22.386 77.614,0 50,0 L50,0 Z" id="Shape" fill="#324D5B"></path>
                            <path d="M30,89.998 L70,89.998 C71.656,89.998 73,91.342 73,92.998 L73,96.998 C73,98.656 71.656,99.998 70,99.998 L30,99.998 C28.343,99.998 27,98.656 27,96.998 L27,92.998 C27,91.342 28.343,89.998 30,89.998 L30,89.998 Z" id="Shape" fill="#E4E7E7"></path>
                            <path d="M77,32.999 L71,32.999 L71,31.999 C71,29.237 68.762,26.999 66,26.999 L34,26.999 C31.239,26.999 29,29.237 29,31.999 L29,32.999 L23,32.999 C21.343,32.999 20,34.343 20,36 L20,45 C20,46.961 21.213,49.213 23,50.998 L29.399,55.92 C31.098,64.679 38.16,71.48 47,72.758 L47,81.998 L45,81.998 C43.343,81.998 42,83.342 42,84.998 L42,85.998 L41,85.998 C39.343,85.998 38,87.342 38,88.998 L38,89.998 L62,89.998 L62,88.998 C62,87.342 60.656,85.998 59,85.998 L58,85.998 L58,84.998 C58,83.342 56.656,81.998 55,81.998 L53,81.998 L53,72.758 C61.84,71.481 68.901,64.679 70.602,55.92 L77,50.998 C78.786,49.213 80,46.961 80,45 L80,36 C80,34.342 78.656,32.999 77,32.999 L77,32.999 Z M23,45 L23,36 L29,36 L29,51.83 L24.994,48.748 C23.618,47.322 23,45.848 23,45 L23,45 Z M77,45 C77,45.848 76.383,47.322 75.006,48.748 L71,51.83 L71,36 L77,36 L77,45 L77,45 Z" id="Shape" fill="#EFC75E"></path>
                            <path d="M53.553,45 C53.5530005,45.0000002 50.053,40.999 49.984,40.999 C49.925,40.999 46.468,45 46.468,45 L43,41.468 C42.509,40.825 42,40.884 42,41.436 L43,50 C43,50.551 43.448,50.999 44,50.999 L56,50.999 C56.553,50.999 57,50.552 57,50 L58,41.5 C58,40.599 57.374,41.035 57,41.375 L53.553,45 Z M56,52.998 L44,52.998 C43.448,52.998 43,53.445 43,53.998 C43,54.551 43.448,54.998 44,54.998 L56,54.998 C56.553,54.998 57,54.551 57,53.998 C57,53.445 56.553,52.998 56,52.998 L56,52.998 Z" id="Shape" fill="#FDE6A9"></path>
                            <path d="M70,97.998 L30,97.998 C28.343,97.998 27,96.656 27,94.998 L27,96.998 C27,98.656 28.343,99.998 30,99.998 L70,99.998 C71.656,99.998 73,98.656 73,96.998 L73,94.998 C73,96.656 71.656,97.998 70,97.998 L70,97.998 Z" id="Shape" fill="#CDCFD0"></path>
                            <g transform="translate(27.000000, 26.000000)" id="Shape" fill="#D7B354">
                                <path d="M11.184,61.998 C11.073,62.312 11,62.645 11,62.998 L11,63.998 L35,63.998 L35,62.998 C35,62.645 34.928,62.312 34.816,61.998 L11.184,61.998 L11.184,61.998 Z M15,58.998 L15,59.998 L31,59.998 L31,58.998 C31,58.645 30.928,58.312 30.816,57.998 L15.184,57.998 C15.072,58.312 15,58.646 15,58.998 L15,58.998 Z M20.004,46.758 L20,46.758 L20,49.758 C20.982,49.9 21.979,49.998 23,49.998 C24.021,49.998 25.018,49.899 26,49.758 L26,46.758 C25.374,46.848 24.739,46.908 24.099,46.949 L24.5,46.922 C13.605,46.144 5,37.016 5,25.84 L5,5.999 C5,3.237 7.239,0.999 10,0.999 L7,0.999 C4.239,0.999 2,3.237 2,5.999 L2,6.999 L0,6.999 L0,10 L2,10 L2,25.83 L0,24.291 L0,28.075 L2.399,29.92 C4.099,38.68 11.163,45.482 20.004,46.758 L20.004,46.758 Z M21.333,46.913 C21.885,46.957 22.437,46.998 23,46.998 C22.437,46.998 21.882,46.964 21.333,46.913 L21.333,46.913 Z M44,6.999 L46,6.999 L46,10 L44,10 L44,6.999 Z M44,25.84 C44,27.236 43.857,28.6 43.602,29.92 L46,28.075 L46,24.291 L44,25.83 L44,25.84 L44,25.84 Z"></path>
                            </g>
                        </g>
                    </g>
                </g>
            </g>
        </g>
    </g>
</svg>