<?xml version="1.0" encoding="UTF-8" standalone="no"?>
<svg width="100px" height="100px" viewBox="0 0 100 100" version="1.1" xmlns="http://www.w3.org/2000/svg" xmlns:xlink="http://www.w3.org/1999/xlink">
    <!-- Generator: Sketch 3.8.2 (29753) - http://www.bohemiancoding.com/sketch -->
    <title>heart</title>
    <desc>Created with Sketch.</desc>
    <defs></defs>
    <g id="Pages" stroke="none" stroke-width="1" fill="none" fill-rule="evenodd">
        <g id="Careers" transform="translate(-156.000000, -1348.000000)">
            <g transform="translate(-234.000000, 1202.000000)" id="#1">
                <g transform="translate(305.000000, 146.000000)">
                    <g id="heart" transform="translate(85.000000, 0.000000)">
                        <g id="Group">
                            <path d="M50,0 C77.613,0 100,22.386 100,50 C100,77.614 77.613,100 50,100 C22.386,100 0,77.614 0,50 C0,22.386 22.386,0 50,0 L50,0 Z" id="Shape" fill="#C0CA33"></path>
                            <path d="M23.594,32.664 C33.072,23.031 42.465,27.24 49.99,34.112 C57.511,27.24 66.831,22.954 76.384,32.664 C83.829,40.229 83.869,52.388 76.384,59.914 C63.827,71.395 57.264,77.388 53.832,80.515 C51.686,82.473 48.437,82.479 46.281,80.532 C42.824,77.409 36.218,71.417 23.593,59.915 C16.108,52.388 16.147,40.229 23.594,32.664 L23.594,32.664 Z" id="Shape" fill="#E2574C"></path>
                            <path d="M15.667,73.668 C18.667,73.336 20.334,71.668 20.667,68.668 C21,71.668 22.667,73.336 25.667,73.668 C22.667,74.002 21,75.668 20.667,78.668 C20.334,75.67 18.667,74.002 15.667,73.668 L15.667,73.668 Z M74,71.002 C73.668,74 72,75.668 69,76.002 C72,76.334 73.668,78.002 74,81 C74.334,78.002 76.001,76.334 79.001,76.002 C76.001,75.668 74.334,74 74,71.002 L74,71.002 Z M40,10.001 C39.668,13 38,14.668 35,15.001 C38,15.334 39.668,17.001 40,20 C40.334,17.001 42.001,15.333 45.001,15.001 C42.001,14.668 40.334,13 40,10.001 L40,10.001 Z" id="Shape" fill="#FFFFFF"></path>
                            <path d="M67,33.003 C72.4,32.402 75.4,29.4 76.001,24.003 C76.602,29.401 79.602,32.403 85.002,33.003 C79.602,33.602 76.602,36.603 76.001,42.002 C75.4,36.604 72.4,33.603 67,33.003 L67,33.003 Z" id="Shape" fill="#FCF4DF"></path>
                            <path d="M25.001,45.688 C25.001,39.244 30.242,34.002 36.686,34.002 C37.413,34.002 37.999,34.59 37.999,35.315 C37.999,36.04 37.411,36.628 36.686,36.628 C31.692,36.628 27.628,40.692 27.628,45.688 C27.628,46.414 27.04,47.001 26.315,47.001 C25.59,47 25.001,46.413 25.001,45.688 L25.001,45.688 Z" id="Shape" fill="#E66E65"></path>
                            <path d="M48.453,78.609 C44.996,75.486 38.391,69.494 25.765,57.992 L25.711,57.933 L24.592,56.913 C19.662,51.954 18.018,44.992 19.582,38.652 C16.56,45.699 17.868,54.156 23.592,59.913 C36.217,71.416 42.822,77.407 46.281,80.53 C48.437,82.477 51.685,82.47 53.832,80.513 L55.634,78.869 C53.497,80.522 50.492,80.451 48.453,78.609 L48.453,78.609 Z" id="Shape" fill="#CB4E44"></path>
                            <path d="M78.783,35.637 C78.094,34.589 77.296,33.591 76.384,32.664 C75.405,31.668 74.428,30.828 73.455,30.114 C71.945,31.718 69.803,32.692 67,33.004 C72.4,33.603 75.4,36.604 76.001,42.003 C76.307,39.259 77.238,37.141 78.783,35.637 L78.783,35.637 Z" id="Shape" fill="#F9DDDB"></path>
                        </g>
                    </g>
                </g>
            </g>
        </g>
    </g>
</svg>