<?xml version="1.0" encoding="UTF-8" standalone="no"?>
<svg width="80px" height="80px" viewBox="0 0 80 80" version="1.1" xmlns="http://www.w3.org/2000/svg" xmlns:xlink="http://www.w3.org/1999/xlink">
    <!-- Generator: sketchtool 3.7.2 (28276) - http://www.bohemiancoding.com/sketch -->
    <title>713E0668-B856-4E19-864E-A960A05D0C25</title>
    <desc>Created with sketchtool.</desc>
    <defs></defs>
    <g id="Pages" stroke="none" stroke-width="1" fill="none" fill-rule="evenodd">
        <g id="Why-CarZar" transform="translate(-856.000000, -860.000000)">
            <g id="Group-10" transform="translate(0.000000, 528.000000)">
                <g id="Group-9" transform="translate(856.000000, 332.000000)">
                    <g id="like">
                        <g id="Group">
                            <path d="M40,0 C17.908,0 0,17.908 0,40 C0,62.0912 17.9088,80 40,80 C62.0912,80 80,62.0904 80,40 C80,17.908 62.0904,0 40,0 L40,0 Z" id="Shape" fill="#324D5B"></path>
                            <path d="M38.388,55.192 C37.5712,55.192 36.9912,54.5624 36.792,54.4392 C36.1544,54.0472 36.3096,53.9376 35.156,53.5936 L31.9256,53.6016 C31.5232,53.6016 31.1968,53.2784 31.1968,52.88 L31.1968,37.5056 C31.1968,37.1064 31.5232,36.784 31.9256,36.784 L36.1992,36.784 C36.3,36.7296 36.6136,36.4624 37.1696,35.8344 C38.1512,34.7288 39.0192,33.2248 39.8592,31.8928 C40.5384,30.816 41.1792,29.7976 41.856,28.9592 C42.7816,27.808 43.3624,27.3864 43.9232,26.9776 C44.5,26.56 44.3824,26.4648 45.5304,24.9976 C47.3704,22.6472 47.6208,21.152 47.864,19.7056 C47.9072,19.4496 47.9512,19.1848 48.004,18.9208 C48.2112,17.8752 49.128,16.7936 50.3048,16.7944 C50.7288,16.7936 51.1424,16.9336 51.5344,17.2088 C53.0376,18.264 53.8272,21.3352 53.5296,23.3752 C53.2232,25.4704 52.2672,28.1792 51.3848,29.1592 C50.6184,30.012 50.2568,30.8568 50.4152,32.156 C50.4904,32.7744 51.4416,32.7992 51.4824,32.8008 L57.4336,32.8232 C59.1536,32.8376 62.4032,33.3752 62.404,36.6976 C62.404,38.2128 61.788,39.1544 61.0712,39.7032 C61.7528,40.3096 62.284,41.0968 62.0936,42.5904 C61.9096,44.04 61.1912,44.9056 60.3552,45.3488 C60.8168,45.9656 61.1288,46.8576 60.9248,48.0664 C60.7288,49.2304 60.0176,50.0416 59.2864,50.4352 C59.6312,50.9616 59.8456,51.768 59.6648,52.7304 C59.2384,54.988 57.2832,55.1184 56.4488,55.1752 L56.1904,55.192 L38.388,55.192 L38.388,55.192 Z" id="Shape" fill="#F2F1EF"></path>
                            <path d="M61.072,39.7032 C61.7888,39.1544 62.4048,38.2128 62.4048,36.6976 C62.404,33.3752 59.1552,32.8368 57.4344,32.8232 L51.4832,32.8 C51.4424,32.7984 50.4912,32.7744 50.416,32.1552 C50.2576,30.856 50.6192,30.0112 51.3856,29.1584 C52.268,28.1784 53.224,25.4696 53.5304,23.3744 C53.828,21.3344 53.0384,18.2632 51.5352,17.208 C51.1432,16.9328 50.7296,16.7928 50.3056,16.7936 C49.8632,16.7936 49.4568,16.9464 49.112,17.1936 L49.1352,17.208 C50.6384,18.2632 51.428,21.3344 51.1304,23.3744 C50.824,25.4696 49.868,28.1784 48.9856,29.1584 C48.2192,30.0112 47.8576,30.856 48.016,32.1552 C48.0912,32.7736 49.0424,32.7984 49.0832,32.8 L55.0344,32.8224 C56.7544,32.8368 60.004,33.3744 60.0048,36.6968 C60.0048,38.212 59.3888,39.1536 58.672,39.7024 C59.3536,40.3088 59.8848,41.096 59.6944,42.5896 C59.5104,44.0392 58.792,44.9048 57.956,45.348 C58.4176,45.9648 58.7296,46.8568 58.5256,48.0656 C58.3296,49.2296 57.6184,50.0408 56.8872,50.4344 C57.232,50.9608 57.4464,51.7672 57.2656,52.7296 C56.8392,54.9872 54.884,55.1176 54.0496,55.1744 L53.7912,55.1912 L56.1912,55.1912 L56.4496,55.1744 C57.284,55.1184 59.2384,54.988 59.6656,52.7296 C59.8472,51.7672 59.632,50.9608 59.2872,50.4344 C60.0184,50.0408 60.7296,49.2296 60.9256,48.0656 C61.1296,46.856 60.8176,45.964 60.356,45.348 C61.192,44.904 61.9096,44.0392 62.0944,42.5896 C62.284,41.0968 61.7528,40.3096 61.072,39.7032 L61.072,39.7032 Z M31.9,53.596 L31.9256,53.6016 L32.7728,53.5992 L32.756,53.5936 L31.9,53.596 L31.9,53.596 Z M61.072,39.7032 C61.7888,39.1544 62.4048,38.2128 62.4048,36.6976 C62.404,33.3752 59.1552,32.8368 57.4344,32.8232 L51.4832,32.8 C51.4424,32.7984 50.4912,32.7744 50.416,32.1552 C50.2576,30.856 50.6192,30.0112 51.3856,29.1584 C52.268,28.1784 53.224,25.4696 53.5304,23.3744 C53.828,21.3344 53.0384,18.2632 51.5352,17.208 C51.1432,16.9328 50.7296,16.7928 50.3056,16.7936 C49.8632,16.7936 49.4568,16.9464 49.112,17.1936 L49.1352,17.208 C50.6384,18.2632 51.428,21.3344 51.1304,23.3744 C50.824,25.4696 49.868,28.1784 48.9856,29.1584 C48.2192,30.0112 47.8576,30.856 48.016,32.1552 C48.0912,32.7736 49.0424,32.7984 49.0832,32.8 L55.0344,32.8224 C56.7544,32.8368 60.004,33.3744 60.0048,36.6968 C60.0048,38.212 59.3888,39.1536 58.672,39.7024 C59.3536,40.3088 59.8848,41.096 59.6944,42.5896 C59.5104,44.0392 58.792,44.9048 57.956,45.348 C58.4176,45.9648 58.7296,46.8568 58.5256,48.0656 C58.3296,49.2296 57.6184,50.0408 56.8872,50.4344 C57.232,50.9608 57.4464,51.7672 57.2656,52.7296 C56.8392,54.9872 54.884,55.1176 54.0496,55.1744 L53.7912,55.1912 L56.1912,55.1912 L56.4496,55.1744 C57.284,55.1184 59.2384,54.988 59.6656,52.7296 C59.8472,51.7672 59.632,50.9608 59.2872,50.4344 C60.0184,50.0408 60.7296,49.2296 60.9256,48.0656 C61.1296,46.856 60.8176,45.964 60.356,45.348 C61.192,44.904 61.9096,44.0392 62.0944,42.5896 C62.284,41.0968 61.7528,40.3096 61.072,39.7032 L61.072,39.7032 Z M31.9,53.596 L31.9256,53.6016 L32.7728,53.5992 L32.756,53.5936 L31.9,53.596 L31.9,53.596 Z" id="Shape" fill="#DCDCDC"></path>
                            <polygon id="Shape" fill="#D7D7D7" points="31.1984 36.8064 33.6128 36.8064 33.6128 53.6064 31.1984 53.6064 31.1984 36.8064"></polygon>
                            <path d="M30.144,56.0008 L21.2904,56.0008 C20.2712,56.0008 19.4408,55.1688 19.4408,54.1472 L16.7976,37.0432 C16.7976,36.02 17.6272,35.1888 18.6464,35.1888 L30.144,35.1888 C31.164,35.1888 31.9936,36.02 31.9936,37.0432 L31.9936,54.1472 C31.9928,55.1688 31.1632,56.0008 30.144,56.0008 L30.144,56.0008 Z" id="Shape" fill="#C0CA33"></path>
                            <path d="M27.1944,48.8048 C28.0784,48.8048 28.7952,49.5208 28.7952,50.404 C28.7952,51.2864 28.0784,52.0016 27.1944,52.0016 C26.3104,52.0016 25.5928,51.2856 25.5928,50.404 C25.5928,49.52 26.3096,48.8048 27.1944,48.8048 L27.1944,48.8048 Z" id="Shape" fill="#FFFFFF"></path>
                            <path d="M31.744,54.4008 L22.8904,54.4008 C21.8712,54.4008 21.0408,53.5688 21.0408,52.5472 L18.3976,35.4432 L18.4208,35.212 C17.508,35.3248 16.7976,36.0976 16.7976,37.0432 L19.4408,54.1472 C19.4408,55.1688 20.2704,56.0008 21.2904,56.0008 L30.144,56.0008 C31.0848,56.0008 31.8552,55.2896 31.9696,54.3784 L31.744,54.4008 L31.744,54.4008 Z" id="Shape" fill-opacity="0.12" fill="#000000"></path>
                            <path d="M27.1944,52.0016 C26.3104,52.0016 25.5928,51.2856 25.5928,50.404 C25.5928,50.1704 25.6456,49.9496 25.736,49.7496 C25.1808,50 24.7928,50.556 24.7928,51.204 C24.7928,52.0864 25.5096,52.8016 26.3944,52.8016 C27.0448,52.8016 27.6024,52.4128 27.8528,51.8568 C27.6512,51.948 27.4296,52.0016 27.1944,52.0016 L27.1944,52.0016 Z" id="Shape" fill-opacity="0.38" fill="#000000"></path>
                        </g>
                    </g>
                </g>
            </g>
        </g>
    </g>
</svg>