<?xml version="1.0" encoding="UTF-8" standalone="no"?>
<svg width="100px" height="100px" viewBox="0 0 100 100" version="1.1" xmlns="http://www.w3.org/2000/svg" xmlns:xlink="http://www.w3.org/1999/xlink">
    <!-- Generator: sketchtool 3.7.2 (28276) - http://www.bohemiancoding.com/sketch -->
    <title>23EB6995-FAB1-4636-81F3-7191B0365DA2</title>
    <desc>Created with sketchtool.</desc>
    <defs>
        <path d="M50,0.999 C77.614,0.999 100,23.385 100,50.999 C100,78.613 77.614,101 50,101 C22.386,101 0,78.613 0,50.999 C0,23.385 22.386,0.999 50,0.999 L50,0.999 Z" id="path-1"></path>
    </defs>
    <g id="Pages" stroke="none" stroke-width="1" fill="none" fill-rule="evenodd">
        <g id="Home-AltHeader" transform="translate(-648.000000, -3053.000000)">
            <g id="Group-4" transform="translate(0.000000, 2544.000000)">
                <g id="#1" transform="translate(648.000000, 500.000000)">
                    <g id="map" transform="translate(0.000000, 8.000000)">
                        <g id="Group">
                            <path d="M50,0.999 C77.614,0.999 100,23.385 100,50.999 C100,78.613 77.614,101 50,101 C22.386,101 0,78.613 0,50.999 C0,23.385 22.386,0.999 50,0.999 L50,0.999 Z" id="Shape" fill="#C0CA33"></path>
                            <g id="Clipped">
                                <mask id="mask-2" fill="white">
                                    <use xlink:href="#path-1"></use>
                                </mask>
                                <g id="a"></g>
                                <g id="Group" mask="url(#mask-2)">
                                    <g transform="translate(-3.000000, -20.000000)" id="Shape">
                                        <polygon fill-opacity="0.12" fill="#000000" points="102.484 106.309 46.665 50.489 91.328 5.826 85.672 0.169 41.009 44.832 6.189 10.013 0.515 15.687 68.333 83.506 20.672 131.17 26.328 136.827 73.991 89.164 96.81 111.982"></polygon>
                                        <polygon fill="#B6B192" points="66.004 54.866 65.996 42.007 92.996 68.163 92.973 80.99"></polygon>
                                        <polygon fill="#DAD5B1" points="129.996 43.979 129.941 30.976 93 67.999 93 81.03 129.996 43.979"></polygon>
                                        <polygon fill="#E4DFBD" points="65.91 42.022 98.09 9.351 125.09 36.913 93.004 68.959 65.91 42.022"></polygon>
                                        <path d="M41.002,41.992 C51.49,41.992 59.992,50.458 59.992,60.901 C59.992,61.104 59.899,65.964 58.266,69.429 C53.588,80.17 41.018,92.069 41.001,92.007 C40.981,92.048 28.465,80.22 23.765,69.493 C22.37,66.952 22.01,61.315 22.01,60.9 C22.011,50.458 30.514,41.992 41.002,41.992 L41.002,41.992 Z" fill="#E2574C"></path>
                                        <path d="M41,50.999 C35.478,50.999 31,55.476 31,60.999 C31,66.521 35.478,70.999 41,70.999 C46.522,70.999 51,66.521 51,60.999 C51,55.476 46.522,50.999 41,50.999 L41,50.999 Z M41,67 C37.687,67 35,64.313 35,61 C35,57.687 37.687,55 41,55 C44.313,55 47,57.686 47,61 C47,64.314 44.313,67 41,67 L41,67 Z" fill="#FFFFFF"></path>
                                    </g>
                                </g>
                            </g>
                        </g>
                    </g>
                </g>
            </g>
        </g>
    </g>
</svg>