<?xml version="1.0" encoding="UTF-8" standalone="no"?>
<svg width="100px" height="100px" viewBox="0 0 100 100" version="1.1" xmlns="http://www.w3.org/2000/svg" xmlns:xlink="http://www.w3.org/1999/xlink">
    <!-- Generator: sketchtool 3.7.2 (28276) - http://www.bohemiancoding.com/sketch -->
    <title>70C233A0-8E8C-4F7B-AA36-B9768EF23EDB</title>
    <desc>Created with sketchtool.</desc>
    <defs></defs>
    <g id="Pages" stroke="none" stroke-width="1" fill="none" fill-rule="evenodd">
        <g id="Home-AltHeader" transform="translate(-648.000000, -2201.000000)">
            <g id="Group-6" transform="translate(0.000000, 1744.000000)">
                <g id="#1" transform="translate(648.000000, 457.000000)">
                    <g id="offer">
                        <g id="Group">
                            <path d="M50,0 C22.385,0 0,22.386 0,50 C0,77.615 22.386,100 50,100 C77.614,100 100,77.615 100,50 C100,22.386 77.613,0 50,0 L50,0 Z" id="Shape" fill="#C0CA33"></path>
                            <path d="M25.999,32 L23.999,72 C23.999,72.825 24.874,85.244 25.466,93.563 C32.716,97.654 41.082,100 50,100 C77.614,100 100,77.615 100,50 C100,41.302 97.775,33.125 93.869,26 L31.999,26 C28.686,26 25.999,28.687 25.999,32 L25.999,32 Z" id="Shape" fill="#F3F3F3"></path>
                            <path d="M68,76 L38.088,35 L25.208,47.817 L24.027,71.428 L25.505,93.584 C30.95,96.651 37.026,98.723 43.492,99.563 L68,76 L68,76 Z" id="Shape" fill="#DADADA"></path>
                            <path d="M23.999,71 L25.454,93.557 C32.707,97.651 41.076,100 50,100 C70.112,100 87.438,88.12 95.375,71 L23.999,71 L23.999,71 Z" id="Shape" fill="#E7E7E7"></path>
                            <path d="M68,76 L64.352,71 L24.049,71 L24.028,71.429 L25.506,93.585 C30.951,96.652 37.027,98.724 43.493,99.564 L68,76 L68,76 Z" id="Shape" fill="#CFCFCF"></path>
                            <polygon id="Shape" fill="#3E4E5C" points="55.479 47.003 40.014 54.092 52.538 81.998 59.22 76.027 68.003 75.972 55.479 47.003"></polygon>
                            <polygon id="Shape" fill="#52606D" points="44.074 47.985 58.992 54.874 46.91 81.994 40.498 75.967 31.991 75.98"></polygon>
                            <path d="M55.479,47.003 L40.014,54.092 L47.416,70.586 C48.277,70.144 49.17,69.51 50,69.51 C51.381,69.51 52.936,71.273 54.229,70.972 C55.563,70.662 56.217,68.375 57.42,67.781 C58.643,67.177 60.795,68.072 61.846,67.213 C62.594,66.603 62.627,65.25 62.881,64.126 L55.479,47.003 L55.479,47.003 Z" id="Shape" fill="#394754"></path>
                            <path d="M44.074,47.985 L37.115,64.108 C37.371,65.235 37.401,66.598 38.152,67.212 C39.203,68.07 41.355,67.176 42.58,67.78 C43.783,68.375 44.437,70.662 45.771,70.971 C47.064,71.272 48.619,69.509 50,69.509 C50.678,69.509 51.397,69.934 52.106,70.33 L58.993,54.873 L44.074,47.985 L44.074,47.985 Z" id="Shape" fill="#4C5965"></path>
                            <path d="M69,50 C69,51.415 66.967,52.577 66.674,53.9 C66.371,55.267 67.701,57.215 67.121,58.449 C66.531,59.702 64.209,59.846 63.369,60.924 C62.525,62.006 62.902,64.358 61.846,65.221 C60.795,66.08 58.643,65.185 57.42,65.789 C56.217,66.385 55.563,68.674 54.229,68.983 C52.936,69.284 51.381,67.52 50,67.52 C48.619,67.52 47.063,69.284 45.771,68.983 C44.437,68.673 43.783,66.384 42.58,65.789 C41.355,65.185 39.203,66.08 38.152,65.221 C37.096,64.358 37.472,62.006 36.63,60.924 C35.791,59.847 33.468,59.702 32.878,58.449 C32.297,57.216 33.629,55.267 33.326,53.9 C33.031,52.577 31,51.415 31,50 C31,48.586 33.032,47.424 33.326,46.1 C33.629,44.733 32.298,42.784 32.878,41.552 C33.468,40.299 35.791,40.154 36.63,39.078 C37.473,37.995 37.097,35.644 38.152,34.78 C39.203,33.921 41.355,34.817 42.58,34.212 C43.783,33.616 44.437,31.328 45.771,31.018 C47.063,30.717 48.619,32.482 50,32.482 C51.381,32.482 52.936,30.717 54.229,31.018 C55.563,31.329 56.217,33.617 57.42,34.212 C58.643,34.817 60.797,33.921 61.846,34.781 C62.903,35.645 62.526,37.995 63.369,39.078 C64.209,40.154 66.531,40.299 67.121,41.552 C67.701,42.785 66.371,44.733 66.674,46.1 C66.967,47.424 69,48.586 69,50 L69,50 Z" id="Shape" fill="#0288D1"></path>
                            <path d="M50,36.012 C42.26,36.012 35.986,42.277 35.986,50.006 C35.986,57.734 42.26,63.999 50,63.999 C57.741,63.999 64.014,57.733 64.014,50.006 C64.014,42.277 57.74,36.012 50,36.012 L50,36.012 Z M50,61.01 C43.93,61.01 39.008,56.082 39.008,50.006 C39.008,43.928 43.93,39.001 50,39.001 C56.071,39.001 60.991,43.928 60.991,50.006 C60.99,56.082 56.07,61.01 50,61.01 L50,61.01 Z M50,44 C46.686,44 44,46.686 44,50 C44,53.313 46.686,56 50,56 C53.313,56 56,53.313 56,50 C56,46.686 53.312,44 50,44 L50,44 Z" id="Shape" fill-opacity="0.12" fill="#000000"></path>
                            <g transform="translate(79.000000, 37.000000)" id="Shape" fill="#CCD0D2">
                                <path d="M20.502,20 L2,20 C0.895,20 0,20.896 0,22 C0,23.104 0.895,24 2,24 L19.771,24 C20.066,22.685 20.312,21.352 20.502,20 L20.502,20 Z M0,2 C0,3.105 0.895,4 2,4 L20.176,4 C19.93,2.647 19.635,1.312 19.281,0 L2,0 C0.895,0 0,0.896 0,2 L0,2 Z M0,12 C0,13.105 0.895,14 2,14 L20.975,14 L21,13 C21,11.992 20.961,10.993 20.902,10 L2,10 C0.895,10 0,10.896 0,12 L0,12 Z"></path>
                            </g>
                        </g>
                    </g>
                </g>
            </g>
        </g>
    </g>
</svg>