<?xml version="1.0" encoding="UTF-8" standalone="no"?>
<svg width="100px" height="100px" viewBox="0 0 100 100" version="1.1" xmlns="http://www.w3.org/2000/svg" xmlns:xlink="http://www.w3.org/1999/xlink">
    <!-- Generator: Sketch 3.8.2 (29753) - http://www.bohemiancoding.com/sketch -->
    <title>paper airplane</title>
    <desc>Created with Sketch.</desc>
    <defs></defs>
    <g id="Pages" stroke="none" stroke-width="1" fill="none" fill-rule="evenodd">
        <g id="Careers" transform="translate(-700.000000, -995.000000)">
            <g id="Group-5" transform="translate(0.000000, 472.000000)">
                <g id="#2" transform="translate(700.000000, 518.000000)">
                    <g id="paper-airplane" transform="translate(0.000000, 5.000000)">
                        <g id="Group">
                            <path d="M50,0 C77.614,0 100,22.386 100,50 C100,77.614 77.614,100 50,100 C22.386,100 0,77.614 0,50 C0,22.386 22.386,0 50,0 L50,0 Z" id="Shape" fill="#0288D1"></path>
                            <path d="M51.438,20.901 C51.172,20.351 50.611,20 49.996,20 C49.381,20 48.82,20.351 48.554,20.901 L16.24,86.876 C25.136,95.024 36.986,100 50,100 C63.011,100 74.858,95.027 83.754,86.883 L51.438,20.901 L51.438,20.901 Z" id="Shape" fill="#42A5D6"></path>
                            <path d="M51.437,20.901 C51.172,20.351 50.611,20 49.996,20 C49.381,20 48.82,20.351 48.554,20.901 C48.554,20.901 36.985,97.923 37.04,98.294 C41.174,99.4 45.517,100 50,100 C54.103,100 58.085,99.495 61.9,98.563 C62.029,98.12 61.787,97.16 61.787,97.16 L51.437,20.901 Z" id="Shape" fill="#54ADD9"></path>
                            <path d="M50,27 L50.202,99.995 C54.626,99.977 58.911,99.377 62.994,98.28 L51.438,20.901 C51.172,20.351 50.611,20 49.996,20 C49.38,20 50.266,26.449 50,27 L50,27 Z" id="Shape" fill="#64B9DB"></path>
                            <path d="M49.996,20 C50.612,20 51.172,20.351 51.438,20.901 L73.788,67.16 C74.425,68.475 73.459,70 71.989,70 L28.009,70 C26.537,70 25.569,68.473 26.206,67.154 L48.553,20.901 C48.82,20.351 49.38,20 49.996,20 L49.996,20 Z" id="Shape" fill="#F2F1EF"></path>
                            <path d="M49.996,50 C50.612,50 51.172,50.351 51.438,50.901 L73.788,67.16 C74.425,68.475 73.459,70 71.989,70 L28.009,70 C26.537,70 25.569,68.473 26.206,67.154 L48.553,50.901 C48.82,50.351 49.38,50 49.996,50 L49.996,50 Z" id="Shape" fill="#C0CA33"></path>
                            <path d="M50,22 L41.002,69.418 C40.941,69.791 41.034,70.172 41.258,70.477 L48.396,80.192 C48.77,80.699 49.366,81 50.001,81 C50.636,81 51.232,80.699 51.605,80.191 L58.748,70.471 C58.97,70.169 59.06,69.792 59.001,69.423 L50,22 L50,22 Z" id="Shape" fill="#DBDBDB"></path>
                            <path d="M50,81 C50.636,81 51.232,80.699 51.605,80.191 L58.748,70.471 C58.97,70.169 59.06,69.792 59.001,69.423 L50,22 L50,81 L50,81 Z" id="Shape" fill="#C5C5C5"></path>
                            <path d="M50,62 L43.839,54.47 L41.002,69.418 L41,69.45 L41,69.806 C41.028,70.045 41.112,70.278 41.258,70.476 L48.396,80.191 C48.77,80.699 49.366,81 50,81 L50,62 L50,62 Z" id="Shape" fill="#B2BB2F"></path>
                            <path d="M51.605,80.191 L58.748,70.471 C58.965,70.176 59.052,69.81 59,69.449 L59,69.419 L56.162,54.468 L50,62 L50,81 L50.001,81 C50.636,81 51.232,80.699 51.605,80.191 L51.605,80.191 Z" id="Shape" fill="#A5AD2E"></path>
                        </g>
                    </g>
                </g>
            </g>
        </g>
    </g>
</svg>