<?xml version="1.0" encoding="UTF-8" standalone="no"?>
<svg width="80px" height="80px" viewBox="0 0 80 80" version="1.1" xmlns="http://www.w3.org/2000/svg" xmlns:xlink="http://www.w3.org/1999/xlink">
    <!-- Generator: sketchtool 3.7.2 (28276) - http://www.bohemiancoding.com/sketch -->
    <title>57145CEE-FFDC-4839-A766-DC01C7F1D7E9</title>
    <desc>Created with sketchtool.</desc>
    <defs>
        <path d="M50.4,22.4 C50.4,21.596 50.336,20.8136 50.2344,20.048 L50.1272,20.0344 C49.8472,20 49.5752,20.1 49.3736,20.2968 C47.3752,22.2536 43.928,24.0264 40,24.0264 C36.072,24.0264 32.6248,22.2528 30.6256,20.2968 C30.4248,20.1 30.1528,20 29.8736,20.0344 L29.7664,20.048 C29.664,20.8136 29.6,21.596 29.6,22.4 C29.6,29.9112 34.256,36 40,36 C45.744,36 50.4,29.9112 50.4,22.4 L50.4,22.4 Z" id="path-1"></path>
    </defs>
    <g id="Pages" stroke="none" stroke-width="1" fill="none" fill-rule="evenodd">
        <g id="Why-CarZar" transform="translate(-856.000000, -1220.000000)">
            <g id="Group-10" transform="translate(0.000000, 528.000000)">
                <g id="Group-9" transform="translate(856.000000, 692.000000)">
                    <g id="shirt">
                        <g id="Group">
                            <path d="M40,0 C62.0912,0 80,17.9088 80,40 C80,62.0912 62.0912,80 40,80 C17.9088,80 0,62.0912 0,40 C0,17.9088 17.9088,0 40,0 L40,0 Z" id="Shape" fill="#324D5B"></path>
                            <path d="M40,80 C30.2608,80 21.3376,76.5168 14.4,70.7304 L14.4,43.46 C14.4,43.024 14.7144,42.6696 15.1392,42.5728 C19.2112,41.6456 22.4,33.1264 22.4,22.7544 C22.4,22.4344 22.3968,22.1168 22.3896,21.8 C22.38,21.328 22.724,20.9232 23.1928,20.8656 L29.8736,20.0344 C30.1536,20 30.4248,20.1 30.6256,20.2968 C32.6248,22.2528 36.072,24.0264 40,24.0264 C43.928,24.0264 47.3752,22.2536 49.3736,20.2968 C49.5752,20.1 49.848,20 50.1272,20.0344 L56.8264,20.868 C57.284,20.9248 57.62,21.3192 57.6096,21.78 C57.604,22.1032 57.6,22.428 57.6,22.7544 C57.6,33.1256 60.788,41.6424 64.8592,42.572 C65.2848,42.6696 65.6,43.0248 65.6,43.4616 L65.6,70.7304 C58.6624,76.5168 49.7392,80 40,80 L40,80 Z" id="Shape" fill="#C0CA33"></path>
                            <g id="Shape">
                                <use fill="#C0CA33" xlink:href="#path-1"></use>
                                <use fill-opacity="0.38" fill="#000000" xlink:href="#path-1"></use>
                            </g>
                            <path d="M50.3504,20.0624 L50.1272,20.0344 C49.8472,20 49.5752,20.1 49.3736,20.2968 C47.3752,22.2536 43.928,24.0264 40,24.0264 C36.072,24.0264 32.6248,22.2528 30.6256,20.2968 C30.4248,20.1 30.1528,20 29.8736,20.0344 L29.5912,20.0696 C30.216,23.6352 34.6192,26.4 39.9704,26.4 C45.324,26.4 49.7304,23.632 50.3504,20.0624 L50.3504,20.0624 Z" id="Shape" fill="#D9D9D9"></path>
                            <path d="M49.6,40.8 L54.4,40.8 C54.8424,40.8 55.2,41.1584 55.2,41.6 L55.2,43.2 C55.2,43.6424 54.8424,44 54.4,44 L49.6,44 C49.1576,44 48.8,43.6424 48.8,43.2 L48.8,41.6 C48.8,41.1584 49.1576,40.8 49.6,40.8 L49.6,40.8 Z" id="Shape" fill="#FFFFFF"></path>
                            <path d="M38.1504,61.524 L32.9816,61.524 C32.8256,61.524 32.8256,61.392 32.9032,61.316 C33.8392,60.3904 35.068,59.5976 36.1608,58.7288 C37.6624,57.5392 38.9112,56.292 38.9112,54.3088 C38.9112,51.6264 36.7464,50.3984 34.132,50.3984 C31.9272,50.3984 29.9184,51.6456 29.7624,54.0064 C29.7624,54.6672 30.0936,54.932 30.7376,54.9896 C31.3616,55.0648 31.9864,54.8568 32.1424,54.196 C32.396,53.1384 33.1568,52.6096 34.132,52.6096 C35.4976,52.6096 36.2968,53.3272 36.2968,54.5928 C36.2968,55.7256 35.1464,56.7648 34.0344,57.596 C32.6688,58.616 31.4008,59.5608 30.2504,60.8456 C29.9776,61.1664 29.6064,61.8008 29.6064,62.5568 C29.6064,63.6712 29.8992,63.992 30.9136,63.992 L38.1504,63.992 C38.7944,63.992 38.9696,63.4256 38.9696,62.8592 C38.9696,62.2904 38.7936,61.524 38.1504,61.524 L38.1504,61.524 Z M46.5504,55.4232 C46.4136,55.404 46.3744,55.272 46.4528,55.1968 L48.9888,52.7216 C49.2816,52.4384 49.496,52.1368 49.5152,51.7016 C49.5544,51.0592 49.3984,50.3688 48.7544,50.3688 L42.024,50.3688 C41.38,50.3688 41.2056,51.1352 41.2056,51.7016 C41.2056,52.2688 41.3608,52.8352 42.024,52.8352 L45.9648,52.8352 C45.672,53.0616 45.4576,53.2696 45.204,53.5344 L43.5264,55.2344 C43.176,55.5928 43.0584,56.0464 43.2728,56.5376 C43.4488,56.9904 43.8192,57.2552 44.288,57.2552 C45.9656,57.2552 47.8184,57.5384 47.8184,59.6544 C47.8184,60.8816 46.94,61.8448 45.5752,61.8448 C44.444,61.8448 43.7608,61.448 43.2728,60.4848 C42.9608,59.9 42.3368,59.824 41.7128,60.0688 C41.0296,60.3336 40.776,60.9384 41.0888,61.5808 C41.8888,63.2808 43.6056,63.9976 45.5168,63.9976 C48.3256,63.9976 50.3936,62.204 50.4128,59.4464 C50.4128,57.2368 48.8712,55.6496 46.5504,55.4232 L46.5504,55.4232 Z" id="Shape" fill="#FCEFED"></path>
                            <g transform="translate(14.400000, 39.200000)" id="Shape" fill-opacity="0.12" fill="#000000">
                                <path d="M50.4592,3.3728 C49.2776,3.1032 48.176,2.1792 47.2,0.7728 L47.2,34.4656 C48.5944,33.5688 49.9312,32.5896 51.2,31.5312 L51.2,4.2616 C51.2,3.8248 50.8848,3.4696 50.4592,3.3728 L50.4592,3.3728 Z M4,0.772 C3.0232,2.1792 1.92,3.104 0.7392,3.372 C0.3144,3.4696 0,3.824 0,4.26 L0,31.5304 C1.2688,32.5888 2.6056,33.568 4,34.4648 L4,0.772 L4,0.772 Z"></path>
                            </g>
                            <g transform="translate(14.400000, 20.000000)" id="Shape" fill="#FFFCFC">
                                <path d="M34.9736,0.2968 L34.9392,0.3272 C35.0224,1.0032 35.0768,1.692 35.0768,2.4 C35.0768,9.4576 30.8264,15.2 25.6,15.2 C20.3736,15.2 16.1232,9.4576 16.1232,2.4 C16.1232,1.6928 16.1768,1.0032 16.2608,0.328 L16.2256,0.2968 C16.0248,0.1 15.7528,3.82333054e-15 15.4736,0.0344 L14.5536,0.1488 C14.4608,0.884 14.4,1.6328 14.4,2.4 C14.4,10.34 19.424,16.8 25.6,16.8 C31.776,16.8 36.8,10.34 36.8,2.4 C36.8,1.6328 36.7392,0.884 36.6472,0.1488 L35.728,0.0344 C35.448,3.82333054e-15 35.1752,0.1 34.9736,0.2968 L34.9736,0.2968 Z M9.6,1.6 L9.5912,0.8 L9.32,0.8 L8.7928,0.8656 C8.3424,0.9208 8.0152,1.2992 7.9984,1.748 L7.9936,2.1848 L8,2.7544 C8,13.1264 4.8112,21.6448 0.7392,22.572 C0.3144,22.6696 1.77635684e-16,23.024 1.77635684e-16,23.46 L1.77635684e-16,24 C5.3832,24 9.6,14.1608 9.6,1.6 L9.6,1.6 Z M50.4592,22.5728 C46.388,21.6432 43.2,13.1256 43.2,2.7544 L43.2064,2.1784 L43.2016,1.7256 C43.1848,1.2896 42.8656,0.9224 42.4264,0.868 L41.8808,0.8 L41.6088,0.8 L41.6,1.6 C41.6,14.1608 45.8168,24 51.2,24 L51.2,23.4616 C51.2,23.0248 50.8848,22.6696 50.4592,22.5728 L50.4592,22.5728 Z"></path>
                            </g>
                            <g transform="translate(14.400000, 39.200000)" id="Shape" fill="#D9D9D9">
                                <path d="M4,0.772 C3.0232,2.1792 1.92,3.104 0.7392,3.372 C0.3144,3.4696 0,3.824 0,4.26 L0,4.8 C1.436,4.8 2.788,4.0936 4,2.828 L4,0.772 L4,0.772 Z M50.4592,3.3728 C49.2776,3.1032 48.176,2.1792 47.2,0.7728 L47.2,2.8288 C48.4128,4.0936 49.764,4.8 51.2,4.8 L51.2,4.2616 C51.2,3.8248 50.8848,3.4696 50.4592,3.3728 L50.4592,3.3728 Z"></path>
                            </g>
                        </g>
                    </g>
                </g>
            </g>
        </g>
    </g>
</svg>