<?xml version="1.0" encoding="UTF-8" standalone="no"?>
<svg width="100px" height="100px" viewBox="0 0 100 100" version="1.1" xmlns="http://www.w3.org/2000/svg" xmlns:xlink="http://www.w3.org/1999/xlink">
    <!-- Generator: sketchtool 3.7.2 (28276) - http://www.bohemiancoding.com/sketch -->
    <title>C306609C-BCEB-4FEB-B9D9-B905544CC0B3</title>
    <desc>Created with sketchtool.</desc>
    <defs></defs>
    <g id="Pages" stroke="none" stroke-width="1" fill="none" fill-rule="evenodd">
        <g id="Home-AltHeader" transform="translate(-648.000000, -3789.000000)">
            <g id="Group-3" transform="translate(0.000000, 3344.000000)">
                <g id="#1" transform="translate(648.000000, 436.000000)">
                    <g id="wallet" transform="translate(0.000000, 9.000000)">
                        <g id="Group">
                            <path d="M50,0 C77.614,0 100,22.386 100,50 C100,77.614 77.614,100 50,100 C22.386,100 0,77.614 0,50 C0,22.386 22.386,0 50,0 L50,0 Z" id="Shape" fill="#C0CA33"></path>
                            <path d="M26,27 L72,27 C74.762,27 77,29.239 77,32 L77,38 C77,40.762 74.762,43 72,43 L26,43 C23.238,43 21,40.762 21,38 L21,32 C21,29.239 23.238,27 26,27 L26,27 Z" id="Shape" fill="#A86A3F"></path>
                            <path d="M72,27 L26,27 C23.238,27 21,29.239 21,32 L21,34 C21,31.239 23.238,29 26,29 L72,29 C74.762,29 77,31.239 77,34 L77,32 C77,29.239 74.762,27 72,27 L72,27 Z" id="Shape" fill="#975F39"></path>
                            <path d="M35.963,31.367 L67.265,23.067 C68.337,22.783 69.44,23.412 69.727,24.473 L74.93,43.685 C75.217,44.746 74.58,45.837 73.508,46.121 L32.735,56.933 C31.663,57.217 30.56,56.588 30.273,55.527 L26.451,41.414 L35.963,31.367 L35.963,31.367 Z" id="Shape" fill="#3DB39E"></path>
                            <path d="M69.457,43.068 L62.695,44.88 C62.162,45.023 61.614,44.707 61.47,44.173 C61.327,43.64 61.644,43.091 62.177,42.948 L67.973,41.395 L64.868,29.804 L59.072,31.357 C58.539,31.5 57.99,31.183 57.847,30.65 C57.704,30.117 58.021,29.568 58.554,29.425 L65.316,27.613 C65.849,27.469 66.397,27.786 66.541,28.32 L70.164,41.842 C70.308,42.377 69.99,42.926 69.457,43.068 L69.457,43.068 Z M41.445,50.574 L34.683,52.386 C34.15,52.529 33.602,52.212 33.458,51.679 L29.835,38.156 C29.691,37.623 30.009,37.074 30.542,36.931 L37.304,35.119 C37.837,34.976 38.385,35.292 38.529,35.827 C38.672,36.36 38.355,36.908 37.822,37.052 L32.026,38.605 L35.131,50.196 L40.927,48.643 C41.46,48.5 42.009,48.817 42.152,49.35 C42.296,49.883 41.979,50.432 41.445,50.574 L41.445,50.574 Z" id="Shape" fill="#78CABB"></path>
                            <path d="M21.292,38.125 C30.201,33.013 54.294,19.176 54.294,19.176 C55.256,18.624 56.484,18.947 57.036,19.897 L67.034,37.108 C67.586,38.059 67.254,39.277 66.291,39.829 L29.706,60.824 C28.744,61.377 27.517,61.053 26.964,60.103 C26.964,60.103 24.1,54.208 21.292,49.374 L21.292,38.125 L21.292,38.125 Z" id="Shape" fill="#5ABEAC"></path>
                            <path d="M35.474,50.696 L30.278,53.696 L24.278,43.303 L29.474,40.303 C29.953,40.027 30.117,39.415 29.84,38.937 C29.563,38.459 28.952,38.295 28.474,38.571 L22.412,42.071 C21.934,42.347 21.77,42.959 22.047,43.436 L29.047,55.561 C29.322,56.04 29.935,56.204 30.412,55.926 L36.474,52.426 C36.953,52.151 37.117,51.539 36.84,51.061 C36.563,50.583 35.952,50.42 35.474,50.696 L35.474,50.696 Z M61.954,36.562 L54.954,24.437 C54.679,23.959 54.066,23.795 53.589,24.071 L47.527,27.571 C47.048,27.847 46.884,28.459 47.161,28.937 C47.438,29.415 48.049,29.579 48.527,29.303 L53.723,26.303 L59.723,36.696 L54.527,39.696 C54.048,39.972 53.884,40.584 54.161,41.062 C54.438,41.54 55.049,41.704 55.527,41.428 L61.589,37.928 C62.066,37.652 62.23,37.041 61.954,36.562 L61.954,36.562 Z M38,33.072 C34.174,35.281 32.862,40.174 35.072,44 C37.281,47.826 42.174,49.138 46,46.928 C49.826,44.719 51.138,39.826 48.928,36 C46.719,32.174 41.826,30.863 38,33.072 L38,33.072 Z" id="Shape" fill="#8CD2C5"></path>
                            <path d="M74,36 L25,36 C22.791,36 21,34.209 21,32 L21,68 C21,70.762 23.238,73 26,73 L74,73 C76.762,73 79,70.762 79,68 L79,41 C79,38.239 76.762,36 74,36 L74,36 Z" id="Shape" fill="#C47E4D"></path>
                            <path d="M79,62 L71,62 C67.134,62 64,58.866 64,55 C64,51.134 67.134,48 71,48 L79,48 C80.104,48 81,48.896 81,50 L81,60 C81,61.105 80.104,62 79,62 L79,62 Z" id="Shape" fill="#A86A3F"></path>
                            <path d="M71,51 C73.209,51 75,52.791 75,55 C75,57.209 73.209,59 71,59 C68.791,59 67,57.209 67,55 C67,52.791 68.791,51 71,51 L71,51 Z" id="Shape" fill="#ECC35D"></path>
                            <path d="M74,36 L25,36 C22.791,36 21,34.209 21,32 L21,34 C21,36.209 22.791,38 25,38 L74,38 C76.762,38 79,40.239 79,43 L79,41 C79,38.239 76.762,36 74,36 L74,36 Z" id="Shape" fill="#CA8B5F"></path>
                            <path d="M74,71 L26,71 C23.238,71 21,68.762 21,66 L21,68 C21,70.762 23.238,73 26,73 L74,73 C76.762,73 79,70.762 79,68 L79,66 C79,68.762 76.762,71 74,71 L74,71 Z" id="Shape" fill="#B27245"></path>
                        </g>
                    </g>
                </g>
            </g>
        </g>
    </g>
</svg>