<?xml version="1.0" encoding="UTF-8" standalone="no"?>
<svg width="100px" height="100px" viewBox="0 0 100 100" version="1.1" xmlns="http://www.w3.org/2000/svg" xmlns:xlink="http://www.w3.org/1999/xlink">
    <!-- Generator: Sketch 3.8.2 (29753) - http://www.bohemiancoding.com/sketch -->
    <title>workspace</title>
    <desc>Created with Sketch.</desc>
    <defs></defs>
    <g id="Pages" stroke="none" stroke-width="1" fill="none" fill-rule="evenodd">
        <g id="Careers" transform="translate(-553.000000, -1609.000000)">
            <g transform="translate(-234.000000, 1202.000000)" id="#4">
                <g transform="translate(705.000000, 407.000000)">
                    <g id="workspace" transform="translate(82.000000, 0.000000)">
                        <g id="Group">
                            <path d="M50,0 C77.614,0 100,22.386 100,50 C100,77.614 77.614,100 50,100 C22.386,100 0,77.614 0,50 C0,22.386 22.386,0 50,0 L50,0 Z" id="Shape" fill="#C0CA33"></path>
                            <path d="M50.189,41.941 C49.127,42.224 48.038,41.597 47.753,40.54 L41.063,15.663 C40.779,14.606 41.408,13.519 42.469,13.236 L70.364,5.789 C80.973,10.811 89.523,19.458 94.433,30.129 L50.189,41.941 L50.189,41.941 Z M28,71 C24.989,71 22.191,70.104 19.842,68.577 L16.355,72.064 C15.126,73.293 13.133,73.293 11.904,72.064 C10.675,70.835 10.675,68.841 11.904,67.613 L15.399,64.117 C13.887,61.776 13,58.994 13,56 C13,47.716 19.716,41 28,41 C36.284,41 43,47.716 43,56 C43,64.284 36.284,71 28,71 L28,71 Z" id="Shape" fill-opacity="0.12" fill="#000000"></path>
                            <path d="M51.189,40.941 C50.127,41.224 49.038,40.597 48.753,39.54 L42.063,14.663 C41.779,13.606 42.408,12.519 43.469,12.236 L71.364,4.789 C81.973,9.811 90.523,18.458 95.433,29.129 L51.189,40.941 L51.189,40.941 Z" id="Shape" fill="#324D5B"></path>
                            <path d="M31,68 C27.989,68 25.191,67.104 22.842,65.577 L19.355,69.064 C18.126,70.293 16.133,70.293 14.904,69.064 C13.675,67.835 13.675,65.841 14.904,64.613 L18.399,61.117 C16.887,58.776 16,55.994 16,53 C16,44.716 22.716,38 31,38 C39.284,38 46,44.716 46,53 C46,61.284 39.284,68 31,68 L31,68 Z" id="Shape" fill="#F2F1EF"></path>
                            <path d="M31,42 C37.075,42 42,46.925 42,53 C42,59.075 37.075,64 31,64 C24.925,64 20,59.075 20,53 C20,46.925 24.925,42 31,42 L31,42 Z" id="Shape" fill="#9B481A"></path>
                            <path d="M62.905,98.311 L49.286,74.747 C48.727,73.781 49.058,72.545 50.026,71.988 L86.681,51.271 C87.648,50.713 88.885,51.044 89.444,52.011 L97.428,65.824 C92.145,81.667 79.158,93.979 62.905,98.311 L62.905,98.311 Z" id="Shape" fill="#E4E7E7"></path>
                            <g transform="translate(52.000000, 56.000000)" id="Shape" fill="#D7D8D8">
                                <path d="M45.323,9.643 L44.303,7.877 L4.312,30.903 L5.333,32.67 L45.323,9.643 Z M0.229,23.838 L1.249,25.604 L41.239,2.577 L40.219,0.812 L0.229,23.838 Z M38.845,22.791 C39.697,21.584 40.496,20.34 41.241,19.058 L8.396,37.969 L9.417,39.736 L38.845,22.791 L38.845,22.791 Z"></path>
                            </g>
                            <path d="M52.908,67.735 C52.419,66.907 51.435,66.568 50.71,66.977 C49.985,67.386 49.793,68.39 50.281,69.218 L52.555,73.072 C53.044,73.899 54.029,74.238 54.753,73.829 C55.479,73.42 55.671,72.416 55.182,71.588 L52.908,67.735 L52.908,67.735 Z M58.162,64.769 C57.673,63.941 56.689,63.602 55.964,64.012 C55.238,64.42 55.046,65.424 55.535,66.252 L57.809,70.106 C58.298,70.933 59.282,71.272 60.007,70.863 C60.733,70.453 60.925,69.45 60.436,68.623 L58.162,64.769 L58.162,64.769 Z M63.416,61.802 C62.927,60.974 61.942,60.635 61.218,61.045 C60.492,61.454 60.3,62.457 60.789,63.285 L63.063,67.139 C63.552,67.967 64.536,68.305 65.261,67.896 C65.986,67.487 66.179,66.483 65.69,65.656 L63.416,61.802 L63.416,61.802 Z M68.67,58.835 C68.181,58.008 67.196,57.668 66.472,58.078 C65.746,58.487 65.554,59.49 66.043,60.318 L68.317,64.172 C68.805,65 69.79,65.338 70.515,64.929 C71.24,64.52 71.432,63.516 70.944,62.689 L68.67,58.835 L68.67,58.835 Z M73.924,55.868 C73.435,55.041 72.45,54.701 71.725,55.111 C71,55.521 70.808,56.523 71.297,57.351 L73.571,61.205 C74.059,62.033 75.044,62.372 75.769,61.963 C76.495,61.553 76.686,60.55 76.198,59.723 L73.924,55.868 L73.924,55.868 Z M79.178,52.902 C78.689,52.074 77.704,51.734 76.979,52.144 C76.254,52.554 76.062,53.556 76.551,54.384 L78.825,58.238 C79.313,59.066 80.298,59.405 81.023,58.996 C81.749,58.586 81.94,57.583 81.452,56.756 L79.178,52.902 L79.178,52.902 Z M86.706,53.789 L84.431,49.935 C83.943,49.107 82.958,48.768 82.233,49.177 C81.508,49.587 81.316,50.59 81.805,51.417 L84.079,55.271 C84.567,56.099 85.552,56.438 86.277,56.029 C87.003,55.619 87.194,54.616 86.706,53.789 L86.706,53.789 Z" id="Shape" fill="#CCD0D2"></path>
                            <path d="M29,45 C35.075,45 40,49.925 40,56 C40,57.605 39.648,59.126 39.03,60.502 C40.867,58.535 42,55.903 42,53 C42,46.925 37.075,42 31,42 C26.53,42 22.691,44.67 20.97,48.499 C22.978,46.351 25.828,45 29,45 L29,45 Z" id="Shape" fill="#8B4117"></path>
                            <path d="M50.857,73.747 C50.399,72.955 50.547,71.987 51.146,71.355 L50.026,71.988 C49.058,72.545 48.727,73.781 49.286,74.747 L62.905,98.31 C63.547,98.139 64.175,97.934 64.806,97.738 L50.857,73.747 L50.857,73.747 Z" id="Shape" fill="#D0D3D3"></path>
                            <g transform="translate(52.000000, 78.000000)" id="Shape" fill="#B9BCBE">
                                <path d="M2.88,2.665 L1.854,0.901 L0.229,1.838 L1.249,3.604 L2.88,2.665 Z M11.084,16.775 L10.059,15.012 L8.396,15.969 L9.417,17.735 L11.084,16.775 Z M6.982,9.721 L5.957,7.957 L4.312,8.903 L5.333,10.67 L6.982,9.721 Z"></path>
                            </g>
                            <g transform="translate(52.000000, 53.000000)" id="Shape" fill="#B7BBBD">
                                <path d="M13.69,12.655 L13.544,12.407 L10.932,13.915 L11.064,14.139 C11.532,14.931 12.449,15.266 13.163,14.938 L13.366,14.821 C13.999,14.375 14.154,13.439 13.69,12.655 L13.69,12.655 Z M1.275,20.783 C1.747,21.049 2.3,21.085 2.754,20.829 C3.48,20.42 3.672,19.416 3.183,18.588 L3.095,18.44 L0.716,19.814 L1.275,20.783 L1.275,20.783 Z M5.81,17.105 C6.299,17.932 7.283,18.271 8.008,17.862 C8.734,17.452 8.926,16.449 8.437,15.622 L8.32,15.424 L5.708,16.932 L5.81,17.105 L5.81,17.105 Z M34.706,0.789 L34.441,0.342 L31.83,1.85 L32.079,2.272 C32.407,2.829 32.958,3.157 33.505,3.193 L34.82,2.433 C35.049,1.954 35.028,1.335 34.706,0.789 L34.706,0.789 Z M18.944,9.688 L18.768,9.39 L16.156,10.898 L16.317,11.171 C16.725,11.863 17.478,12.205 18.138,12.064 L18.838,11.66 C19.281,11.17 19.348,10.371 18.944,9.688 L18.944,9.688 Z M29.452,3.756 L29.218,3.359 L26.606,4.867 L26.826,5.239 C27.176,5.832 27.779,6.168 28.36,6.164 L29.516,5.497 C29.797,5.007 29.797,4.34 29.452,3.756 L29.452,3.756 Z M24.198,6.723 L23.993,6.374 L21.381,7.883 L21.571,8.205 C21.945,8.839 22.609,9.183 23.225,9.127 L24.207,8.56 C24.548,8.066 24.565,7.345 24.198,6.723 L24.198,6.723 Z"></path>
                            </g>
                            <path d="M55.57,0.316 C53.685,3.75 51.808,7.046 53.982,11.011 L55.923,9.831 C54.131,6.568 55.861,3.863 57.661,0.584 C56.97,0.478 56.271,0.394 55.57,0.316 L55.57,0.316 Z" id="Shape" fill="#324D5B"></path>
                            <g transform="translate(46.000000, 8.000000)" id="Shape" fill="#2D4552">
                                <path d="M26.426,14.088 C26.571,14.63 27.126,14.952 27.667,14.807 L30.604,14.017 C31.145,13.872 31.465,13.314 31.321,12.772 L30.534,9.825 C30.389,9.283 29.834,8.96 29.293,9.106 L26.356,9.896 C25.815,10.042 25.495,10.6 25.639,11.142 L26.426,14.088 L26.426,14.088 Z M13.559,9.126 L12.772,6.179 C12.627,5.637 12.072,5.315 11.531,5.46 L8.594,6.249 C8.053,6.395 7.733,6.952 7.877,7.495 L8.664,10.441 C8.809,10.984 9.364,11.305 9.905,11.16 L12.842,10.371 C13.383,10.226 13.703,9.668 13.559,9.126 L13.559,9.126 Z M29.222,4.915 L28.435,1.968 C28.29,1.426 27.735,1.104 27.194,1.249 L24.257,2.039 C23.716,2.184 23.396,2.742 23.54,3.284 L24.327,6.231 C24.472,6.773 25.027,7.095 25.568,6.95 L28.505,6.161 C29.046,6.015 29.366,5.457 29.222,4.915 L29.222,4.915 Z M42.089,9.877 C42.195,10.279 42.528,10.557 42.913,10.616 C42.612,10.243 42.304,9.877 41.992,9.513 L42.089,9.877 L42.089,9.877 Z M37.124,7.001 L34.186,7.791 C33.646,7.936 33.325,8.494 33.469,9.036 L34.256,11.983 C34.402,12.525 34.957,12.847 35.497,12.702 L38.435,11.912 C38.975,11.766 39.296,11.209 39.151,10.667 L38.365,7.72 C38.22,7.178 37.664,6.855 37.124,7.001 L37.124,7.001 Z M0.832,12.547 C0.978,13.089 1.533,13.411 2.073,13.266 L5.011,12.476 C5.551,12.33 5.872,11.773 5.728,11.23 L4.941,8.283 C4.795,7.741 4.24,7.419 3.7,7.564 L0.762,8.353 C0.222,8.499 -0.099,9.056 0.045,9.599 L0.832,12.547 L0.832,12.547 Z M31.372,1.178 L32.158,4.125 C32.304,4.667 32.859,4.989 33.399,4.844 L36.337,4.055 L36.466,3.991 C34.912,2.663 33.28,1.426 31.571,0.294 C31.379,0.537 31.285,0.854 31.372,1.178 L31.372,1.178 Z M7.109,20.334 C7.649,20.189 7.97,19.631 7.825,19.089 L7.039,16.143 C6.893,15.6 6.338,15.278 5.797,15.423 L2.86,16.213 C2.32,16.359 1.999,16.916 2.143,17.458 L2.93,20.405 C3.076,20.947 3.631,21.27 4.171,21.124 L7.109,20.334 L7.109,20.334 Z M45.166,17.472 L44.379,14.526 C44.234,13.983 43.679,13.662 43.138,13.807 L20.622,19.86 C20.081,20.006 19.761,20.563 19.905,21.106 L20.692,24.053 C20.837,24.595 21.392,24.917 21.933,24.772 L44.449,18.719 C44.99,18.572 45.311,18.015 45.166,17.472 L45.166,17.472 Z M18.594,16.193 C18.739,16.736 19.295,17.058 19.835,16.913 L22.772,16.123 C23.313,15.978 23.634,15.42 23.489,14.878 L22.702,11.931 C22.557,11.389 22.002,11.066 21.462,11.212 L18.524,12.002 C17.984,12.147 17.663,12.704 17.807,13.247 L18.594,16.193 L18.594,16.193 Z M7.896,23.281 L4.959,24.07 C4.418,24.216 4.098,24.773 4.242,25.316 L5.029,28.262 C5.174,28.804 5.729,29.126 6.27,28.981 L9.207,28.192 C9.748,28.046 10.068,27.489 9.924,26.946 L9.137,24 C8.992,23.458 8.437,23.136 7.896,23.281 L7.896,23.281 Z M10.763,18.299 C10.908,18.841 11.463,19.163 12.004,19.018 L14.941,18.228 C15.482,18.082 15.802,17.525 15.658,16.983 L14.871,14.036 C14.726,13.494 14.171,13.172 13.63,13.317 L10.693,14.107 C10.152,14.252 9.831,14.81 9.976,15.352 L10.763,18.299 L10.763,18.299 Z M21.391,7.02 L20.604,4.073 C20.458,3.531 19.903,3.209 19.363,3.354 L16.425,4.143 C15.885,4.289 15.564,4.846 15.709,5.389 L16.495,8.336 C16.641,8.878 17.196,9.2 17.736,9.055 L20.674,8.266 C21.214,8.12 21.535,7.562 21.391,7.02 L21.391,7.02 Z M12.86,26.157 C13.006,26.699 13.561,27.021 14.102,26.876 L17.039,26.087 C17.58,25.941 17.9,25.384 17.756,24.841 L16.969,21.894 C16.824,21.352 16.268,21.03 15.728,21.175 L12.79,21.965 C12.25,22.11 11.929,22.668 12.074,23.21 L12.86,26.157 L12.86,26.157 Z"></path>
                            </g>
                            <g transform="translate(47.000000, 8.000000)" id="Shape" fill="#475F6C">
                                <path d="M26.426,13.088 C26.571,13.63 27.126,13.952 27.667,13.807 L30.604,13.017 C31.145,12.872 31.465,12.314 31.321,11.772 L30.534,8.825 C30.389,8.283 29.834,7.96 29.293,8.106 L26.356,8.896 C25.815,9.042 25.495,9.6 25.639,10.142 L26.426,13.088 L26.426,13.088 Z M29.222,3.915 L28.435,0.968 C28.29,0.426 27.735,0.104 27.194,0.249 L24.257,1.039 C23.716,1.184 23.396,1.742 23.54,2.284 L24.327,5.231 C24.472,5.773 25.027,6.095 25.568,5.95 L28.505,5.161 C29.046,5.015 29.366,4.457 29.222,3.915 L29.222,3.915 Z M32.158,3.125 C32.304,3.667 32.859,3.989 33.399,3.844 L34.847,3.455 C33.798,2.587 32.706,1.771 31.588,0.99 L32.158,3.125 L32.158,3.125 Z M0.832,11.547 C0.978,12.089 1.533,12.411 2.073,12.266 L5.011,11.476 C5.551,11.33 5.872,10.773 5.728,10.23 L4.941,7.283 C4.795,6.741 4.24,6.419 3.7,6.564 L0.762,7.353 C0.222,7.499 -0.099,8.056 0.045,8.599 L0.832,11.547 L0.832,11.547 Z M37.727,6.045 C37.539,5.976 37.333,5.945 37.124,6.001 L34.186,6.791 C33.646,6.936 33.325,7.494 33.469,8.036 L34.256,10.983 C34.402,11.525 34.957,11.847 35.497,11.702 L38.435,10.912 C38.975,10.766 39.296,10.209 39.151,9.667 L38.365,6.72 L38.303,6.595 L37.727,6.045 L37.727,6.045 Z M13.559,8.126 L12.772,5.179 C12.627,4.637 12.072,4.315 11.531,4.46 L8.594,5.249 C8.053,5.395 7.733,5.952 7.877,6.495 L8.664,9.441 C8.809,9.984 9.364,10.305 9.905,10.16 L12.842,9.371 C13.383,9.226 13.703,8.668 13.559,8.126 L13.559,8.126 Z M45.166,16.472 L44.559,14.197 C44.24,13.721 43.905,13.257 43.57,12.792 C43.43,12.768 43.285,12.768 43.138,12.807 L20.622,18.86 C20.081,19.006 19.761,19.563 19.905,20.106 L20.692,23.053 C20.837,23.595 21.392,23.917 21.933,23.772 L44.449,17.719 C44.99,17.572 45.311,17.015 45.166,16.472 L45.166,16.472 Z M18.594,15.193 C18.739,15.736 19.295,16.058 19.835,15.913 L22.772,15.123 C23.313,14.978 23.634,14.42 23.489,13.878 L22.702,10.931 C22.557,10.389 22.002,10.066 21.462,10.212 L18.524,11.002 C17.984,11.147 17.663,11.704 17.807,12.247 L18.594,15.193 L18.594,15.193 Z M21.391,6.02 L20.604,3.073 C20.458,2.531 19.903,2.209 19.363,2.354 L16.425,3.143 C15.885,3.289 15.564,3.846 15.709,4.389 L16.495,7.336 C16.641,7.878 17.196,8.2 17.736,8.055 L20.674,7.266 C21.214,7.12 21.535,6.562 21.391,6.02 L21.391,6.02 Z M7.896,22.281 L4.959,23.07 C4.418,23.216 4.098,23.773 4.242,24.316 L5.029,27.262 C5.174,27.804 5.729,28.126 6.27,27.981 L9.207,27.192 C9.748,27.046 10.068,26.489 9.924,25.946 L9.137,23 C8.992,22.458 8.437,22.136 7.896,22.281 L7.896,22.281 Z M4.172,20.124 L7.11,19.334 C7.65,19.189 7.971,18.631 7.826,18.089 L7.04,15.143 C6.894,14.6 6.339,14.278 5.798,14.423 L2.861,15.213 C2.321,15.359 2,15.916 2.144,16.458 L2.931,19.405 C3.076,19.947 3.632,20.27 4.172,20.124 L4.172,20.124 Z M12.86,25.157 C13.006,25.699 13.561,26.021 14.102,25.876 L17.039,25.087 C17.58,24.941 17.9,24.384 17.756,23.841 L16.969,20.894 C16.824,20.352 16.268,20.03 15.728,20.175 L12.79,20.965 C12.25,21.11 11.929,21.668 12.074,22.21 L12.86,25.157 L12.86,25.157 Z M10.763,17.299 C10.908,17.841 11.463,18.163 12.004,18.018 L14.941,17.228 C15.482,17.082 15.802,16.525 15.658,15.983 L14.871,13.036 C14.726,12.494 14.171,12.172 13.63,12.317 L10.693,13.107 C10.152,13.252 9.831,13.81 9.976,14.352 L10.763,17.299 L10.763,17.299 Z"></path>
                            </g>
                        </g>
                    </g>
                </g>
            </g>
        </g>
    </g>
</svg>